<?xml version="1.0" encoding="UTF-8" standalone="no"?>
<svg
   xmlns:dc="http://purl.org/dc/elements/1.1/"
   xmlns:cc="http://creativecommons.org/ns#"
   xmlns:rdf="http://www.w3.org/1999/02/22-rdf-syntax-ns#"
   xmlns:svg="http://www.w3.org/2000/svg"
   xmlns="http://www.w3.org/2000/svg"
   xmlns:sodipodi="http://sodipodi.sourceforge.net/DTD/sodipodi-0.dtd"
   xmlns:inkscape="http://www.inkscape.org/namespaces/inkscape"
   width="83.980751mm"
   height="75.083191mm"
   viewBox="0 0 83.980751 75.083191"
   version="1.1"
   id="svg1"
   xml:space="preserve"
   sodipodi:docname="beholderlogo.svg"
   inkscape:version="1.0.2-2 (e86c870879, 2021-01-15)"><metadata
     id="metadata23"><rdf:RDF><cc:Work
         rdf:about=""><dc:format>image/svg+xml</dc:format><dc:type
           rdf:resource="http://purl.org/dc/dcmitype/StillImage" /></cc:Work></rdf:RDF></metadata><sodipodi:namedview
     pagecolor="#ffffff"
     bordercolor="#666666"
     borderopacity="1"
     objecttolerance="10"
     gridtolerance="10"
     guidetolerance="10"
     inkscape:pageopacity="0"
     inkscape:pageshadow="2"
     inkscape:window-width="1920"
     inkscape:window-height="1009"
     id="namedview21"
     showgrid="false"
     inkscape:zoom="0.74177444"
     inkscape:cx="220.44621"
     inkscape:cy="245.55121"
     inkscape:window-x="-8"
     inkscape:window-y="-8"
     inkscape:window-maximized="1"
     inkscape:current-layer="svg1" /><defs
     id="defs1" /><g
     id="g915"
     transform="translate(4.9936564,-79.185123)"><path
       style="fill:#8800aa;fill-opacity:1;stroke:none"
       d="m 23.03721,154.29243 c -0.95735,-0.24342 -2.08405,-0.67257 -2.46346,-0.93832 -0.18906,-0.13242 -0.68284,-0.15538 -2.26383,-0.10524 -2.36032,0.0748 -3.65262,-0.10212 -5.66666,-0.77599 -3.88466,-1.29975 -6.26347,-3.44126 -7.2525,-6.52897 -0.39264,-1.22582 -0.51123,-3.02775 -0.29497,-4.48147 l 0.15665,-1.05293 -0.39965,-0.62281 c -0.973,-1.5163 -1.37626,-3.98988 -0.94722,-5.81037 0.27226,-1.15533 0.91571,-2.45392 1.68031,-3.39116 0.59549,-0.72993 0.61755,-0.78404 0.50949,-1.24987 -0.1714,-0.73887 -0.1372,-2.64397 0.0626,-3.4866 0.39065,-1.64767 1.32099,-3.18296 2.75308,-4.5433 0.7402,-0.70312 0.94002,-0.96846 0.94002,-1.24826 0,-0.60129 0.4809,-2.29069 0.89032,-3.12768 0.45528,-0.93078 1.63216,-2.17751 2.54683,-2.69801 0.34372,-0.19559 0.64753,-0.37466 0.67513,-0.39794 0.12353,-0.10414 -0.97829,-1.55985 -1.74901,-2.31076 -0.9569,-0.93232 -2.56299,-1.84108 -3.80062,-2.1505 -0.72032,-0.18007 -2.33553,-0.31871 -3.83687,-0.32931 l -0.71216,-0.005 0.13013,-0.37334 c 0.0716,-0.20534 0.11085,-0.68983 0.0872,-1.07666 l -0.0429,-0.70331 1.9373,0.0613 c 2.30747,0.073 3.38538,0.31812 5.09153,1.15798 1.8788,0.92485 3.48854,2.37349 4.76026,4.28388 l 0.44109,0.6626 0.20873,-0.54986 c 0.30028,-0.79108 1.05993,-1.88665 1.69695,-2.44738 0.61264,-0.53927 1.98382,-1.2978 2.92472,-1.61795 l 0.61619,-0.20966 -0.42795,-1.27532 c -0.79782,-2.37757 -1.8294,-4.04812 -3.45508,-5.59517 -1.02935,-0.97955 -1.29428,-1.15432 -3.05067,-2.012393 -1.38086,-0.67462 -2.11903,-1.11845 -2.6168,-1.57339 l -0.69337,-0.6337 0.53558,-0.33965 c 0.29456,-0.18681 0.67798,-0.5089 0.85204,-0.71575 l 0.31647,-0.3761 0.49348,0.43043 c 0.27143,0.23673 1.28092,0.80951 2.24332,1.27284 2.53507,1.22046 3.72403,2.20438 5.21509,4.315733 1.04159,1.47489 2.1522,3.89466 2.59723,5.65881 l 0.134,0.53119 h 0.81967 c 0.78201,0 0.84639,-0.0236 1.40129,-0.51311 0.80161,-0.70719 1.77515,-1.17211 3.01006,-1.43748 l 1.04557,-0.22468 -0.0804,-1.81832 c -0.0849,-1.92153 -0.42766,-4.552553 -0.76736,-5.890933 -0.44597,-1.75706 -1.13172,-3.19752 -2.16679,-4.55145 -0.31534,-0.41249 -0.8456,-1.10791 -1.17836,-1.54538 -0.50255,-0.66069 -1.59339,-2.5957 -1.59339,-2.82646 0,-0.0359 0.24357,-0.0653 0.54126,-0.0653 0.32253,0 0.7793,-0.12051 1.13029,-0.2982 l 0.58903,-0.2982 0.35829,0.70976 c 0.19706,0.39038 0.83369,1.3445 1.41474,2.12027 1.71739,2.29294 2.29126,3.41923 3.01196,5.91128 0.53159,1.83814 0.9065,4.643993 0.97765,7.316763 l 0.034,1.2756 0.62719,0.14747 c 1.33513,0.31392 2.35073,1.0837 2.83078,2.14562 l 0.29616,0.65514 0.0347,8.20138 0.0347,8.20138 -0.78461,0.0867 c -0.43153,0.0477 -0.90995,0.11715 -1.06315,0.1544 l -0.27856,0.0677 -0.0339,-8.14607 -0.0339,-8.14607 -0.51713,-0.48233 c -0.69057,-0.64409 -1.29671,-0.79245 -2.92002,-0.71471 -1.57493,0.0754 -2.36384,0.32924 -2.99969,0.9651 -0.61272,0.61272 -0.8545,1.35814 -1.06042,3.26939 -0.20167,1.87173 -0.49749,2.59195 -1.55115,3.77657 -1.21969,1.37128 -1.70201,1.58367 -2.34346,1.03192 -0.57458,-0.49424 -0.48388,-1.02416 0.32667,-1.90863 1.03965,-1.13445 1.35075,-1.69777 1.42835,-2.58643 0.23929,-2.74044 0.24375,-2.58308 -0.0733,-2.58128 -0.6339,0.004 -2.67422,0.50477 -3.29854,0.81022 -0.77412,0.37874 -1.83445,1.29502 -2.23358,1.93014 -0.6615,1.05261 -0.8986,2.64646 -0.69101,4.64522 0.15882,1.52917 0.77253,2.53859 2.04297,3.3602 1.11368,0.72024 1.36931,1.40002 0.78288,2.0818 -0.46041,0.53526 -0.9865,0.47129 -1.98524,-0.2414 -1.6959,-1.21017 -2.57812,-2.60775 -2.90034,-4.59459 -0.10538,-0.64978 -0.19182,-1.47671 -0.1921,-1.83761 -2.7e-4,-0.3609 -0.0322,-0.65618 -0.0709,-0.65618 -0.0387,0 -0.38678,0.15467 -0.77353,0.34371 -1.0512,0.51384 -1.94668,1.39749 -2.4639,2.43135 -0.38637,0.77231 -0.44183,0.99921 -0.44183,1.80778 0,0.51562 0.0784,1.11237 0.17734,1.34904 0.0975,0.23343 0.6584,0.93864 1.24637,1.56714 1.44707,1.54679 1.83983,2.34914 1.92237,3.92712 0.0594,1.13664 0.0507,1.18683 -0.26174,1.49926 -0.44692,0.44692 -0.99583,0.43119 -1.46912,-0.0421 -0.32596,-0.32597 -0.36564,-0.4506 -0.36809,-1.15614 -0.004,-1.04718 -0.26516,-1.58731 -1.32293,-2.73223 -0.47422,-0.51329 -0.99033,-1.09768 -1.14691,-1.29864 l -0.2847,-0.36539 -0.49705,0.48535 c -1.37914,1.3467 -2.05887,2.99566 -1.9725,4.78507 0.064,1.32508 0.38811,2.05641 1.25817,2.83866 0.98404,0.88474 1.71537,1.07026 4.6561,1.18112 3.45153,0.13011 4.74541,0.4845 6.00377,1.64442 1.14478,1.05522 1.80793,2.68434 1.80793,4.44143 0,0.76847 -0.0438,0.95259 -0.29627,1.24613 -0.38276,0.44499 -1.07733,0.47624 -1.48668,0.0669 -0.23217,-0.23217 -0.28989,-0.46617 -0.35304,-1.43111 -0.11655,-1.78101 -0.62454,-2.60109 -2.05108,-3.31115 -0.81592,-0.40613 -1.70898,-0.5295 -3.84951,-0.5318 -3.05418,-0.003 -4.6271,-0.44861 -5.94785,-1.68402 l -0.61745,-0.57756 -0.40519,0.58892 c -1.12763,1.63896 -1.30474,4.07095 -0.42316,5.81066 0.3748,0.73962 1.31622,1.57267 1.98032,1.75236 0.64717,0.17511 1.78166,0.0783 2.37335,-0.20243 0.2494,-0.11835 0.79287,-0.51803 1.2077,-0.88818 0.58312,-0.52031 0.84611,-0.673 1.15916,-0.673 0.83292,0 1.29059,0.74065 0.91112,1.47447 -0.25892,0.5007 -1.37116,1.48082 -2.09892,1.84961 -1.28689,0.65211 -2.70263,0.82961 -3.97812,0.49875 -0.3748,-0.0972 -0.72452,-0.15014 -0.77716,-0.11761 -0.17062,0.10544 -0.10125,2.04925 0.10097,2.82965 0.40553,1.56497 1.05709,2.5393 2.42805,3.63081 0.7836,0.62387 2.83767,1.78682 2.95274,1.67174 0.0186,-0.0186 -0.0308,-0.4118 -0.10995,-0.87367 -0.37148,-2.16872 0.78952,-4.53116 2.96218,-6.02753 0.59027,-0.40654 0.74889,-0.46067 1.15787,-0.39518 0.56018,0.0897 0.91136,0.46751 0.91136,0.98047 0,0.53192 -0.17339,0.78421 -0.78551,1.14293 -0.744,0.43602 -1.54956,1.34283 -1.92885,2.1713 -0.2696,0.58888 -0.3074,0.81477 -0.25197,1.50541 0.0838,1.04354 0.52102,1.7151 1.40482,2.15758 0.55814,0.27945 0.77601,0.31228 2.06145,0.3107 1.17792,-0.001 1.59528,-0.0551 2.31227,-0.29725 1.22799,-0.41473 3.38571,-1.5361 4.10693,-2.1344 0.86814,-0.72015 1.55104,-0.65276 1.90222,0.18773 0.35278,0.84434 -0.1717,1.43318 -2.37061,2.66146 l -1.1077,0.61874 0.91739,0.15474 c 0.50598,0.0853 1.39837,0.12731 1.98995,0.0936 1.22711,-0.07 1.94638,-0.33724 2.95314,-1.09735 l 0.65351,-0.4934 0.66456,0.34957 c 0.3655,0.19226 0.85734,0.41678 1.09296,0.49891 l 0.42841,0.14934 -0.36592,0.38685 c -0.8968,0.94812 -2.63194,1.85608 -4.17014,2.18216 -1.12658,0.23882 -2.99762,0.21004 -4.06998,-0.0626 z m 23.46545,-0.0106 c -1.28014,-0.33544 -3.05623,-1.28074 -3.60008,-1.91611 l -0.44115,-0.51538 0.3006,-0.0804 c 0.16533,-0.0442 0.63476,-0.24203 1.04317,-0.4396 l 0.74257,-0.35921 0.61856,0.40813 c 1.2074,0.79665 1.82221,0.96354 3.55577,0.96522 2.27671,0.002 2.31683,-0.0705 0.64231,-1.16336 -0.75523,-0.49291 -1.48992,-1.04467 -1.63266,-1.22613 -0.57496,-0.73094 -0.11735,-1.80127 0.76594,-1.79153 0.29705,0.003 0.6384,0.1774 1.2243,0.6245 3.11518,2.37714 6.84432,2.9803 10.67974,1.72736 3.35305,-1.09537 5.7054,-3.33073 6.26021,-5.94888 0.18836,-0.88889 0.2495,-2.78475 0.0896,-2.77779 -0.0516,0.002 -0.40308,0.11289 -0.78117,0.24589 -0.37808,0.133 -0.92054,0.24365 -1.20546,0.2459 -0.84093,0.007 -2.03531,-0.43876 -2.85663,-1.06522 -0.41245,-0.3146 -0.96276,-0.68291 -1.22289,-0.81847 -0.94986,-0.49496 -1.08018,-1.53523 -0.25286,-2.01841 0.55071,-0.32163 1.14241,-0.14289 2.10151,0.63481 1.01123,0.81996 1.43761,1.0216 2.16029,1.0216 0.76705,0 2.02301,-0.59886 2.46142,-1.17365 1.09684,-1.43803 1.24639,-3.77257 0.36118,-5.63816 -0.16309,-0.34372 -0.40484,-0.76422 -0.53722,-0.93446 l -0.24068,-0.30951 -0.74975,0.81821 c -1.42475,1.55486 -2.58668,1.95353 -6.14329,2.10782 -2.69863,0.11706 -3.6674,0.32619 -4.58278,0.9893 -0.64188,0.46497 -0.93289,1.0924 -1.04694,2.25723 -0.078,0.79682 -0.14062,0.97672 -0.42503,1.22136 -0.4476,0.38501 -0.99623,0.37155 -1.40219,-0.0344 -0.30762,-0.30761 -0.31911,-0.3702 -0.26961,-1.4686 0.0627,-1.39128 0.41478,-2.26128 1.29665,-3.20407 1.18657,-1.26854 2.76267,-1.73558 6.30492,-1.86833 2.30232,-0.0863 2.4803,-0.11075 3.21497,-0.44214 1.72599,-0.77855 2.91236,-2.74269 2.90792,-4.81433 -0.003,-1.50093 -0.63452,-2.95617 -1.85368,-4.27297 l -0.79908,-0.86308 -0.58679,0.53449 c -0.32273,0.29398 -0.98928,0.85673 -1.48122,1.25057 -1.05449,0.84421 -1.41304,1.45405 -1.48746,2.52991 -0.0737,1.065 0.16124,1.44858 0.99467,1.62425 0.8108,0.1709 1.10471,1.072 0.57097,1.75055 -0.25183,0.32014 -0.32062,0.33938 -1.04782,0.29308 -1.10421,-0.0703 -1.66324,-0.46611 -2.2009,-1.55824 -0.38127,-0.77448 -0.41321,-0.93138 -0.40177,-1.97361 0.0216,-1.96824 0.67936,-3.1491 2.54522,-4.56944 1.26443,-0.96253 1.65526,-1.52787 1.72526,-2.49562 0.0428,-0.5916 -0.01,-0.86167 -0.28898,-1.48375 -0.43161,-0.96176 -1.50734,-2.01144 -2.58512,-2.52254 l -0.78853,-0.37394 -0.0932,0.71948 c -0.24596,1.89858 -0.35522,2.36325 -0.75165,3.19675 -0.53219,1.1189 -1.46028,2.14469 -2.67626,2.95799 -0.70811,0.47361 -1.05107,0.62662 -1.40457,0.62662 -0.84495,0 -1.30492,-0.89991 -0.81643,-1.59733 0.10712,-0.15294 0.51489,-0.49596 0.90615,-0.76227 1.0796,-0.73481 1.93949,-1.71381 2.2666,-2.58056 0.38559,-1.02173 0.42468,-3.27511 0.0752,-4.33468 -0.62744,-1.90222 -2.41316,-3.19821 -4.94257,-3.58707 -0.51557,-0.0793 -1.07877,-0.16651 -1.25155,-0.19389 l -0.31414,-0.0498 0.0462,1.39706 c 0.0587,1.77432 0.18322,2.07984 1.03483,2.53859 0.76212,0.41055 1.06327,0.84032 0.93816,1.33882 -0.22462,0.89496 -1.08091,1.07896 -2.15478,0.46304 -1.38782,-0.796 -1.80375,-1.66309 -1.92078,-4.00425 -0.0905,-1.81123 -0.19899,-2.17172 -0.83507,-2.77579 -0.66963,-0.63592 -1.47348,-0.89633 -2.93804,-0.9518 -2.0774,-0.0787 -3.00257,0.35565 -3.35638,1.57567 -0.0912,0.31442 -0.12234,2.96075 -0.0971,8.24355 0.0245,5.1281 -0.005,7.78074 -0.0878,7.78127 -0.0688,4.5e-4 -0.56243,-0.0658 -1.09707,-0.14715 l -0.97208,-0.14797 0.0347,-8.19575 0.0347,-8.19576 0.29819,-0.65986 c 0.42136,-0.93241 1.32146,-1.70784 2.35179,-2.02608 0.44743,-0.1382 0.89194,-0.25126 0.98782,-0.25126 0.13644,0 0.17459,-0.25121 0.1756,-1.15614 0.005,-4.777853 1.11816,-9.292833 2.95279,-11.980093 0.25341,-0.37118 0.81286,-1.11714 1.24322,-1.65769 0.43036,-0.54055 0.95453,-1.30565 1.16483,-1.7002 l 0.38236,-0.71738 0.65865,0.22752 c 0.36225,0.12513 0.86956,0.22936 1.12735,0.2316 0.25778,0.002 0.4687,0.0333 0.4687,0.0691 0,0.33172 -1.32113,2.54308 -2.16983,3.63196 -0.58518,0.75077 -1.24565,1.66447 -1.46772,2.03045 -1.20775,1.99046 -2.11187,6.167143 -2.11187,9.756093 v 1.20845 l 0.95463,0.15189 c 1.22783,0.19535 2.13126,0.61451 2.95156,1.36941 l 0.65585,0.60357 0.86105,-0.0153 0.86104,-0.0153 0.28667,-0.99296 c 1.074,-3.72009 3.15981,-6.78614 5.75108,-8.453813 0.47535,-0.30593 1.56733,-0.89528 2.42662,-1.30967 0.85929,-0.41439 1.69377,-0.89489 1.85441,-1.06777 l 0.29207,-0.31434 0.43157,0.47769 c 0.23736,0.26274 0.65564,0.58856 0.9295,0.72406 l 0.49793,0.24635 -0.64461,0.57955 c -0.43576,0.3918 -1.30412,0.90151 -2.68032,1.57333 -1.88122,0.918343 -2.12145,1.075353 -3.16526,2.068673 -1.67296,1.59204 -2.68401,3.25836 -3.50457,5.77593 l -0.35589,1.09193 0.91118,0.32162 c 1.24546,0.4396 2.21367,1.04778 2.97847,1.87091 0.64467,0.69385 1.45562,2.04133 1.45562,2.41867 0,0.3548 0.17793,0.21271 0.56245,-0.44915 0.20623,-0.35498 0.88116,-1.16114 1.49984,-1.79146 1.66796,-1.69931 3.18178,-2.63429 5.27489,-3.25791 0.91302,-0.27202 1.43328,-0.3386 3.06801,-0.39258 l 1.96855,-0.065 v 0.75827 c 0,0.41704 0.0549,0.90254 0.1219,1.07887 0.12006,0.31579 0.11302,0.32067 -0.4687,0.32526 -1.55862,0.0123 -3.28655,0.15084 -3.95558,0.31716 -0.81724,0.20315 -1.91113,0.72498 -2.91098,1.38864 -0.70716,0.46938 -2.33598,2.14112 -2.69636,2.7674 l -0.22321,0.3879 0.60557,0.30686 c 0.95876,0.48584 1.82505,1.24075 2.38352,2.07707 0.61007,0.91359 1.14355,2.50094 1.1467,3.41193 0.002,0.62374 0.0267,0.67016 0.61313,1.16017 1.37666,1.15027 2.42391,2.62885 2.97284,4.19725 0.3871,1.10604 0.51739,2.85545 0.29635,3.97901 l -0.14878,0.75619 0.57149,0.65301 c 0.70945,0.81064 1.4735,2.36127 1.75756,3.56695 0.16421,0.69697 0.20018,1.2463 0.15142,2.31227 -0.0744,1.62706 -0.38351,2.66839 -1.05197,3.54412 -0.41859,0.54838 -0.42688,0.58134 -0.29769,1.18374 0.3245,1.51308 0.0981,3.82238 -0.54116,5.52084 -1.1031,2.93067 -4.11215,5.27308 -8.15877,6.35125 -1.14797,0.30585 -4.55608,0.46388 -5.64884,0.26193 -0.64265,-0.11877 -0.71068,-0.10386 -1.63366,0.3581 -1.92062,0.9613 -4.3995,1.2491 -6.35205,0.73748 z m -12.0916,-4.45803 c -2.40928,-0.53922 -4.87225,-2.04568 -6.40556,-3.9179 -0.82085,-1.0023 -1.82192,-2.98297 -2.17776,-4.30881 -0.39199,-1.46052 -0.39179,-4.44963 4e-4,-5.87441 1.16631,-4.23713 4.33026,-7.2173 8.64738,-8.14512 1.66607,-0.35806 3.97707,-0.30966 5.52284,0.11566 3.72657,1.02537 6.64694,3.72022 7.85863,7.25175 1.4493,4.22405 0.29081,8.99721 -2.92516,12.05206 -1.60349,1.52316 -3.59522,2.48584 -5.74906,2.77875 -0.94544,0.12857 -4.26262,0.16195 -4.77171,0.048 z m 4.45975,-4.17831 c 2.29998,-0.6206 4.24014,-2.47061 4.98924,-4.75738 0.24768,-0.75612 0.29796,-1.15565 0.28827,-2.29072 -0.0176,-2.06187 -0.52107,-3.34082 -1.90249,-4.83292 -1.65693,-1.78968 -4.09308,-2.6028 -6.51892,-2.17583 -1.57059,0.27644 -2.72244,0.88805 -3.87809,2.05919 -1.86631,1.89133 -2.52505,4.28193 -1.87754,6.81369 0.32002,1.25127 0.76823,2.06602 1.66663,3.02964 1.96363,2.10615 4.55308,2.87742 7.2329,2.15433 z m -3.24067,-2.53631 c -1.25308,-0.40866 -2.32825,-1.36308 -2.89377,-2.56878 -0.27869,-0.59419 -0.32511,-0.86264 -0.32511,-1.88051 0,-1.02759 0.0452,-1.28386 0.33599,-1.90428 0.86857,-1.85327 2.93785,-2.97112 4.88114,-2.63684 1.61947,0.27858 2.82096,1.14255 3.49614,2.51402 0.37741,0.76663 0.4108,0.9314 0.4108,2.0271 0,1.09295 -0.034,1.2616 -0.4062,2.01774 -0.78255,1.58958 -2.19008,2.50007 -3.96836,2.567 -0.61412,0.0231 -1.20465,-0.0291 -1.53063,-0.13545 z m 23.06673,3.69734 c -0.11643,-0.0467 -0.40945,-0.31623 -0.65116,-0.59891 -0.65577,-0.7669 -1.00071,-0.86961 -2.26174,-0.67344 -1.28956,0.20061 -2.74103,0.0945 -3.18727,-0.23308 -0.46559,-0.34174 -0.50083,-1.15224 -0.0689,-1.58419 0.29508,-0.29509 0.40145,-0.31913 1.35073,-0.30531 0.56673,0.008 1.53662,-0.0237 2.1553,-0.071 1.32477,-0.10129 1.90665,0.0251 2.76939,0.60171 0.67767,0.4529 1.41769,1.45933 1.41769,1.92809 0,0.65194 -0.88211,1.19376 -1.52406,0.93613 z M 20.97493,129.31531 c -0.35824,-0.11862 -0.62051,-0.44114 -0.699,-0.85959 -0.11943,-0.63662 0.18261,-0.99697 1.04344,-1.24488 2.42411,-0.6981 3.31444,-1.7422 3.53515,-4.14569 0.15659,-1.70542 0.48228,-2.76389 1.15141,-3.74194 0.93386,-1.36503 2.77342,-2.66107 3.77704,-2.66107 0.74182,0 1.21884,0.7065 0.9516,1.4094 -0.0921,0.2423 -0.3585,0.44605 -0.94619,0.72372 -0.93307,0.44084 -1.91447,1.33306 -2.30212,2.09292 -0.14549,0.28519 -0.32237,0.95553 -0.3931,1.48965 -0.0707,0.53412 -0.18361,1.39006 -0.25089,1.90209 -0.20622,1.56946 -0.85281,2.64088 -2.27344,3.76717 -0.88858,0.70448 -3.0224,1.45746 -3.5939,1.26822 z m 29.12203,-0.75617 c -1.52982,-0.39987 -2.70903,-1.36778 -3.3516,-2.75105 -0.30596,-0.65865 -0.33452,-0.87002 -0.39978,-2.95909 -0.0845,-2.70627 -0.1922,-3.02583 -1.42758,-4.23712 -0.94037,-0.92204 -1.05652,-1.35006 -0.51365,-1.89293 0.68406,-0.68406 1.66017,-0.23977 2.79627,1.27276 0.98435,1.31049 1.19913,2.07934 1.21828,4.36122 0.009,1.07405 0.0796,2.07218 0.16488,2.33048 0.19834,0.60099 1.33413,1.66633 1.96254,1.8408 0.26842,0.0745 0.814,0.13582 1.2124,0.13621 0.60188,5.8e-4 0.77623,0.0526 1.03114,0.30748 0.38669,0.38669 0.40737,1.03149 0.0478,1.48868 -0.23497,0.2987 -0.33665,0.32865 -1.09364,0.32212 -0.45903,-0.004 -1.20018,-0.10277 -1.64701,-0.21956 z M -0.17772,111.57425 c 0.15548,-0.0299 0.38045,-0.0288 0.49995,0.002 0.1195,0.0313 -0.008,0.0557 -0.28268,0.0544 -0.27497,-0.001 -0.37274,-0.027 -0.21727,-0.0569 z m 73.80353,0.002 c 0.1203,-0.0314 0.31716,-0.0314 0.43746,0 0.1203,0.0314 0.0219,0.0572 -0.21873,0.0572 -0.2406,0 -0.33903,-0.0257 -0.21873,-0.0572 z m -74.4221,-0.12421 c 0.0902,-0.0361 0.19802,-0.0317 0.23956,0.01 0.0415,0.0415 -0.0323,0.0711 -0.16406,0.0657 -0.1456,-0.006 -0.17521,-0.0356 -0.0755,-0.0755 z m 1.49203,0.003 c 0.0859,-0.0347 0.22654,-0.0347 0.31247,0 0.0859,0.0347 0.0156,0.063 -0.15623,0.063 -0.17186,0 -0.24218,-0.0284 -0.15624,-0.063 z m 72.24264,0 c 0.0859,-0.0347 0.22654,-0.0347 0.31247,0 0.0859,0.0347 0.0156,0.063 -0.15623,0.063 -0.17186,0 -0.24217,-0.0284 -0.15624,-0.063 z m 1.49985,0 c 0.0859,-0.0347 0.22654,-0.0347 0.31247,0 0.0859,0.0347 0.0156,0.063 -0.15624,0.063 -0.17185,0 -0.24216,-0.0284 -0.15623,-0.063 z m -75.96101,-0.16715 c -0.22847,-0.14764 -0.0311,-0.14764 0.31246,0 0.16483,0.0708 0.18612,0.10976 0.0625,0.11429 -0.10311,0.004 -0.27185,-0.0477 -0.37496,-0.11429 z m 2.8747,0 c 0.10312,-0.0666 0.24373,-0.12116 0.31247,-0.12116 0.0687,0 0.0406,0.0545 -0.0625,0.12116 -0.10312,0.0666 -0.24372,0.12117 -0.31247,0.12117 -0.0687,0 -0.0406,-0.0545 0.0625,-0.12117 z m -3.70658,-0.49721 c -0.27839,-0.20474 -0.65505,-0.59723 -0.83704,-0.87224 -0.46227,-0.69854 -0.41416,-0.78286 0.0673,-0.1179 0.35721,0.49338 0.53144,0.66517 1.21914,1.20215 0.41064,0.32065 0.032,0.14202 -0.44941,-0.21201 z m 4.20653,0.31853 c 0,-0.0344 0.11249,-0.12269 0.24998,-0.19627 0.13749,-0.0736 0.24996,-0.10566 0.24996,-0.0713 0,0.0344 -0.11247,0.12269 -0.24996,0.19627 -0.13749,0.0736 -0.24998,0.10566 -0.24998,0.0713 z m 69.64866,-0.2696 c -0.39421,-0.3107 -1.15563,-1.3055 -1.15563,-1.50987 0,-0.0554 0.18915,0.17967 0.42034,0.52247 0.23119,0.34279 0.63829,0.77794 0.90467,0.96699 0.26638,0.18904 0.42876,0.34309 0.36083,0.34232 -0.0679,-7.6e-4 -0.30652,-0.14562 -0.53021,-0.32191 z m 4.81845,-0.23865 c 0.29542,-0.25717 0.70266,-0.75621 0.90498,-1.10895 0.38415,-0.66977 0.51301,-0.71765 0.17565,-0.0652 -0.24739,0.47838 -1.01698,1.33363 -1.35701,1.50804 -0.14342,0.0736 -0.019,-0.0767 0.27638,-0.33385 z m -73.84217,0.14787 c 0,-0.0215 0.18279,-0.20429 0.40621,-0.4062 l 0.40621,-0.3671 -0.36711,0.4062 c -0.34218,0.37865 -0.44531,0.46367 -0.44531,0.3671 z m 0.87491,-1.08578 c 0.0736,-0.13747 0.1619,-0.24996 0.19628,-0.24996 0.0344,0 0.002,0.11249 -0.0713,0.24996 -0.0736,0.1375 -0.16191,0.24999 -0.19628,0.24999 -0.0344,0 -0.002,-0.11249 0.0713,-0.24999 z m -3.78087,-0.33274 c 0.0859,-0.0347 0.22654,-0.0347 0.31247,0 0.0859,0.0347 0.0156,0.063 -0.15623,0.063 -0.17186,0 -0.24216,-0.0284 -0.15624,-0.063 z m 0.75774,-0.003 c 0.0902,-0.0361 0.19803,-0.0317 0.23956,0.01 0.0415,0.0415 -0.0323,0.0711 -0.16404,0.0657 -0.14561,-0.006 -0.17523,-0.0356 -0.0755,-0.0755 z m 73.57844,-0.0307 c 0.34372,-0.0445 0.7545,-0.15264 0.91285,-0.24035 0.64426,-0.35685 0.97763,-1.48923 0.6426,-2.18277 -0.1274,-0.26372 -0.12527,-0.26477 0.0625,-0.0304 0.27075,0.33793 0.2431,1.17579 -0.0549,1.66458 -0.35614,0.58411 -0.94891,0.90755 -1.62551,0.88694 l -0.56244,-0.0171 z m -75.12522,-0.41511 -0.36709,-0.40622 0.43683,0.37497 c 0.24025,0.20623 0.46055,0.38902 0.48953,0.40621 0.029,0.0172 -0.002,0.0312 -0.0697,0.0312 -0.0673,0 -0.28762,-0.18279 -0.48953,-0.40622 z m 1.95621,0.37496 c 0.029,-0.0172 0.24928,-0.19998 0.48953,-0.40621 l 0.43684,-0.37497 -0.36711,0.40622 c -0.2019,0.22341 -0.42219,0.40621 -0.48953,0.40621 -0.0673,0 -0.0987,-0.0141 -0.0697,-0.0312 z m 71.8087,-0.46906 c -0.25558,-0.28289 -0.4471,-0.62237 -0.44073,-0.78117 0.009,-0.22174 0.0353,-0.19803 0.12527,0.11265 0.0627,0.21643 0.31268,0.56795 0.55552,0.78117 0.24284,0.21321 0.38987,0.38766 0.32673,0.38766 -0.0631,0 -0.31819,-0.22514 -0.56679,-0.50031 z M -3.7627,108.58986 c 0.006,-0.14561 0.0356,-0.17522 0.0755,-0.0755 0.0361,0.0902 0.0317,0.19802 -0.01,0.23955 -0.0415,0.0415 -0.0711,-0.0323 -0.0656,-0.16404 z m 81.37659,-0.0521 c 0,-0.17186 0.0284,-0.24217 0.0631,-0.15624 0.0347,0.0859 0.0347,0.22654 0,0.31247 -0.0347,0.0859 -0.0631,0.0156 -0.0631,-0.15623 z M -3.8635,107.66285 c 0,-0.30935 0.0244,-0.4359 0.0542,-0.28122 0.0298,0.15467 0.0298,0.40777 0,0.56244 -0.0298,0.15467 -0.0542,0.0281 -0.0542,-0.28122 z m 2.10833,-0.007 c -0.011,-0.35521 0.0565,-0.66118 0.17915,-0.81242 0.10823,-0.13344 0.15141,-0.15825 0.096,-0.0551 -0.0554,0.10312 -0.13605,0.46871 -0.17914,0.81243 l -0.0784,0.62493 z m 3.51609,0.007 c 0,-0.30935 0.0244,-0.4359 0.0542,-0.28122 0.0298,0.15467 0.0298,0.40777 0,0.56244 -0.0298,0.15467 -0.0542,0.0281 -0.0542,-0.28122 z m 75.98722,0 c 0,-0.2406 0.0257,-0.33903 0.0572,-0.21873 0.0314,0.1203 0.0314,0.31715 0,0.43745 -0.0314,0.1203 -0.0572,0.0219 -0.0572,-0.21872 z M 1.54743,106.82456 c -0.0678,-0.17813 -0.0535,-0.19248 0.07,-0.07 0.0854,0.0848 0.12381,0.18563 0.0853,0.22412 -0.0385,0.0385 -0.10837,-0.0309 -0.1553,-0.15415 z m -5.31807,-0.10954 c 9.9e-4,-0.13176 0.059,-0.32393 0.12877,-0.42705 0.0926,-0.13691 0.10425,-0.0863 0.043,0.18749 -0.10279,0.45957 -0.17433,0.55933 -0.17177,0.23956 z m 81.37467,0 c 0.006,-0.14562 0.0356,-0.17522 0.0755,-0.0755 0.0361,0.0902 0.0317,0.19803 -0.01,0.23957 -0.0415,0.0415 -0.0711,-0.0323 -0.0656,-0.16405 z m -73.86749,-0.1356 c -0.005,-0.0803 -0.0422,-0.24904 -0.0818,-0.37496 -0.0684,-0.21763 -0.0649,-0.2179 0.0713,-0.006 0.0788,0.12289 0.1156,0.29162 0.0818,0.37496 -0.0444,0.10936 -0.0642,0.1109 -0.0713,0.005 z m 69.01031,-0.3227 c 0.19344,-0.18903 0.42113,-0.34199 0.50597,-0.3399 0.0849,0.002 0.0418,0.066 -0.0957,0.14205 -0.13749,0.076 -0.36517,0.22899 -0.50597,0.33992 -0.1408,0.11091 -0.0977,0.047 0.0957,-0.14207 z m -73.8001,-0.0625 c 0.16188,-0.15466 0.36149,-0.2795 0.44359,-0.27741 0.0821,0.002 0.0368,0.0662 -0.10071,0.14248 -0.13749,0.0763 -0.3371,0.20112 -0.44359,0.27742 -0.10648,0.0763 -0.0612,0.0122 0.10071,-0.14249 z m 2.03373,0.0251 c -0.23866,-0.16849 -0.37927,-0.30606 -0.31247,-0.30572 0.0668,3.4e-4 0.2902,0.13893 0.49642,0.30797 0.48149,0.39468 0.37647,0.39339 -0.18395,-0.002 z m 73.86749,0 c -0.23866,-0.16849 -0.37928,-0.30606 -0.31247,-0.30572 0.0668,3.4e-4 0.29019,0.13893 0.49642,0.30797 0.48149,0.39468 0.37647,0.39339 -0.18395,-0.002 z m 2.52159,-0.22076 c -0.0859,-0.2376 -0.39086,-0.70559 -0.67763,-1.03996 -0.41882,-0.48835 -0.44064,-0.53419 -0.1109,-0.233 0.46456,0.42435 1.05798,1.36529 0.98988,1.56959 -0.0248,0.0745 -0.11543,-0.059 -0.20135,-0.29663 z m -80.89215,-0.0782 c 0,-0.0647 0.0556,-0.15197 0.12356,-0.19397 0.0708,-0.0438 0.0918,0.006 0.0491,0.1176 -0.0831,0.21654 -0.17267,0.25616 -0.17267,0.0764 z m 73.86749,0.0288 c 0,-0.23309 0.72757,-1.12814 1.14501,-1.40859 l 0.41733,-0.28038 -0.46128,0.42019 c -0.2537,0.23109 -0.60522,0.63894 -0.78117,0.90632 -0.17594,0.26737 -0.31989,0.43049 -0.31989,0.36246 z m -70.52262,-0.1246 c 0.15548,-0.0299 0.38045,-0.0288 0.49995,0.002 0.1195,0.0313 -0.008,0.0557 -0.28268,0.0544 -0.27497,-0.001 -0.37274,-0.027 -0.21727,-0.0569 z m 3.47344,-0.27401 c -0.10308,-0.19933 -0.42399,-0.56492 -0.71315,-0.81242 -0.28915,-0.2475 -0.48764,-0.45001 -0.44109,-0.45001 0.16936,0 1.10623,0.9279 1.28403,1.27174 0.10043,0.19421 0.15447,0.35309 0.12011,0.35309 -0.0344,0 -0.14684,-0.16308 -0.2499,-0.3624 z m 70.39404,0.27401 c 0.15548,-0.0299 0.38045,-0.0288 0.49995,0.002 0.1195,0.0313 -0.008,0.0557 -0.28268,0.0544 -0.27497,-0.001 -0.37274,-0.027 -0.21727,-0.0569 z m -76.86108,-0.47404 c 0.24083,-0.47336 1.47412,-1.43775 1.83601,-1.43571 0.0687,3.9e-4 -0.16432,0.16664 -0.51793,0.36945 -0.35362,0.20281 -0.82345,0.58193 -1.0441,0.84249 -0.22065,0.26056 -0.34393,0.36126 -0.27398,0.22377 z m 78.95802,-1.08717 c -0.13481,-0.0782 -0.47228,-0.21333 -0.74992,-0.3003 -0.27765,-0.087 -0.39232,-0.16067 -0.25484,-0.16376 0.26512,-0.006 1.31237,0.42911 1.31237,0.54522 0,0.0908 -0.0205,0.0854 -0.30761,-0.0812 z m -3.72531,-0.11573 c 0.0848,-0.0854 0.18563,-0.12382 0.22412,-0.0853 0.0385,0.0385 -0.0309,0.10837 -0.15415,0.15531 -0.17814,0.0678 -0.19249,0.0535 -0.07,-0.07 z M 1.35192,104.03816 c -0.10311,-0.0666 -0.13123,-0.12116 -0.0625,-0.12116 0.0687,0 0.20935,0.0545 0.31247,0.12116 0.10312,0.0666 0.13124,0.12116 0.0625,0.12116 -0.0687,0 -0.20936,-0.0545 -0.31247,-0.12116 z m -2.3982,-0.21038 c 0.0902,-0.0361 0.19803,-0.0317 0.23956,0.01 0.0415,0.0415 -0.0323,0.0711 -0.16404,0.0656 -0.1456,-0.006 -0.17522,-0.0356 -0.0755,-0.0755 z m 1.87481,0 c 0.0902,-0.0361 0.19803,-0.0317 0.23956,0.01 0.0415,0.0415 -0.0323,0.0711 -0.16405,0.0656 -0.1456,-0.006 -0.17522,-0.0356 -0.0755,-0.0755 z m 72.11766,0 c 0.0902,-0.0361 0.19803,-0.0317 0.23956,0.01 0.0415,0.0415 -0.0323,0.0711 -0.16404,0.0656 -0.14561,-0.006 -0.17522,-0.0356 -0.0755,-0.0755 z m -73.18614,-0.1293 c 0.18998,-0.0287 0.47121,-0.028 0.62494,0.002 0.15373,0.0297 -0.002,0.0532 -0.34544,0.0522 -0.34372,-9.4e-4 -0.46948,-0.0252 -0.2795,-0.0539 z m 73.92826,10e-4 c 0.15467,-0.0298 0.40777,-0.0298 0.56244,0 0.15467,0.0298 0.0281,0.0542 -0.28122,0.0542 -0.30935,0 -0.4359,-0.0244 -0.28122,-0.0542 z M 9.19488,97.205557 c 0.0859,-0.0347 0.22654,-0.0347 0.31246,0 0.0859,0.0347 0.0156,0.063 -0.15624,0.063 -0.17186,0 -0.24215,-0.0284 -0.15622,-0.063 z m 1.00135,-0.006 c 0.15547,-0.0299 0.38044,-0.0288 0.49995,0.002 0.1195,0.0313 -0.008,0.0557 -0.28268,0.0544 -0.27498,-9.9e-4 -0.37275,-0.027 -0.21727,-0.0569 z m 53.4306,-0.003 c 0.25779,-0.027 0.67962,-0.027 0.9374,0 0.25779,0.027 0.0469,0.049 -0.4687,0.049 -0.51557,0 -0.72649,-0.0221 -0.4687,-0.049 z M 8.07809,96.908317 c -0.25333,-0.13382 -0.50317,-0.31412 -0.55519,-0.40069 -0.0748,-0.12454 -0.0555,-0.12576 0.0928,-0.006 0.10308,0.0834 0.43729,0.26493 0.74267,0.40346 0.30539,0.13854 0.47088,0.25064 0.36778,0.24911 -0.10313,-10e-4 -0.39476,-0.11225 -0.6481,-0.24606 z m 57.77628,-0.11774 c 0.48833,-0.25816 1.05634,-0.76483 1.40447,-1.25277 0.12261,-0.17186 0.18298,-0.22811 0.13415,-0.12499 -0.30258,0.639 -1.44184,1.63604 -1.85029,1.6193 -0.0741,-0.003 0.0661,-0.11172 0.31167,-0.24154 z M 6.87995,95.944007 c -0.39636,-0.50567 -0.65652,-0.95364 -0.64852,-1.11667 0.003,-0.0561 0.0951,0.0668 0.20516,0.27301 0.11009,0.20623 0.36566,0.58587 0.56794,0.84366 0.20229,0.25779 0.33967,0.46871 0.3053,0.46871 -0.0344,0 -0.22782,-0.21092 -0.42988,-0.46871 z m 6.40616,-0.7771 c 0.10549,-0.20399 0.2419,-0.58364 0.30312,-0.84366 0.0822,-0.34914 0.11389,-0.39107 0.12114,-0.16031 0.01,0.31402 -0.41008,1.37487 -0.54425,1.37487 -0.0395,0 0.0145,-0.1669 0.11999,-0.3709 z m 47.2429,-0.0125 c -0.10905,-0.21089 -0.1808,-0.43328 -0.15944,-0.49419 0.0214,-0.0609 0.13309,0.11165 0.24828,0.38344 0.24835,0.58595 0.19275,0.65526 -0.0888,0.11075 z m -51.2885,-0.10495 c -0.10583,-0.067 0.0642,-0.0841 0.43746,-0.044 0.33579,0.0361 0.63397,0.0863 0.66261,0.11153 0.11314,0.0996 -0.938,0.0351 -1.10007,-0.0676 z m 54.5738,0.0252 c 0.15467,-0.0298 0.40777,-0.0298 0.56244,0 0.15468,0.0298 0.0281,0.0542 -0.28122,0.0542 -0.30934,0 -0.43589,-0.0244 -0.28122,-0.0542 z M 8.53994,94.539247 c -0.1969,-0.20553 -0.33397,-0.39362 -0.30461,-0.41803 0.0294,-0.0244 0.2136,0.14377 0.40941,0.37367 0.44212,0.51908 0.37659,0.54681 -0.1048,0.0443 z m 2.53027,-0.0479 c 0.22313,-0.25414 0.40569,-0.55385 0.40569,-0.66603 0,-0.11217 0.0397,-0.16424 0.0883,-0.1157 0.12898,0.129 -0.30341,0.87142 -0.6242,1.07176 -0.19945,0.12456 -0.16352,0.0445 0.13025,-0.29003 z m 51.88449,0.20283 c -0.15546,-0.19824 -0.15104,-0.20267 0.0472,-0.0472 0.2082,0.16327 0.27441,0.2659 0.17154,0.2659 -0.0259,0 -0.12438,-0.0984 -0.21873,-0.21871 z m 2.37318,-0.17162 c 0.16222,-0.18668 0.33926,-0.52674 0.39342,-0.75571 0.0933,-0.39463 0.0991,-0.39831 0.11126,-0.0707 0.009,0.23352 -0.11891,0.47853 -0.39341,0.75572 -0.22342,0.22557 -0.27349,0.25742 -0.11127,0.0707 z m -59.21657,-0.0575 c 0.006,-0.1456 0.0356,-0.17522 0.0755,-0.0755 0.0361,0.0902 0.0317,0.19801 -0.01,0.23955 -0.0415,0.0415 -0.0711,-0.0323 -0.0656,-0.16404 z m 54.11948,-0.24998 c 0.006,-0.1456 0.0356,-0.17522 0.0755,-0.0755 0.0361,0.0902 0.0317,0.19803 -0.01,0.23956 -0.0415,0.0415 -0.0711,-0.0323 -0.0656,-0.16406 z m 2.2362,-0.059 c -0.0756,-0.1413 -0.11897,-0.31245 -0.0963,-0.38037 0.0226,-0.0679 0.10577,0.0477 0.18473,0.2569 0.16423,0.43508 0.1151,0.50371 -0.0884,0.12347 z M 6.01747,93.350597 c 5.4e-4,-0.4812 0.0231,-0.66274 0.0502,-0.40342 0.0271,0.25932 0.0266,0.65303 -10e-4,0.87491 -0.0276,0.22188 -0.0498,0.01 -0.0492,-0.47149 z m 61.86514,0.0625 c 0,-0.37809 0.0234,-0.53275 0.0521,-0.34371 0.0286,0.18903 0.0286,0.49838 0,0.68742 -0.0286,0.18905 -0.0521,0.0344 -0.0521,-0.34371 z M 8.1111,93.715147 c 0.006,-0.1456 0.0356,-0.17522 0.0755,-0.0755 0.0361,0.0902 0.0317,0.19801 -0.01,0.23955 -0.0415,0.0415 -0.0711,-0.0323 -0.0657,-0.16405 z m 5.64356,-0.30205 c 0,-0.2406 0.0257,-0.33902 0.0572,-0.21872 0.0314,0.1203 0.0314,0.31715 0,0.43744 -0.0314,0.12031 -0.0572,0.0219 -0.0572,-0.21872 z m 46.37028,0 c 0,-0.2406 0.0257,-0.33902 0.0572,-0.21872 0.0314,0.1203 0.0314,0.31715 0,0.43744 -0.0314,0.12031 -0.0572,0.0219 -0.0572,-0.21872 z m 2.10565,-0.0729 c 0.006,-0.14561 0.0356,-0.17522 0.0755,-0.0755 0.0361,0.0902 0.0317,0.19803 -0.01,0.23956 -0.0415,0.0415 -0.0711,-0.0323 -0.0656,-0.16404 z m 3.50428,-0.19809 c -0.008,-0.11467 -0.0469,-0.31153 -0.0864,-0.43745 -0.0682,-0.21702 -0.0645,-0.21734 0.0709,-0.006 0.0786,0.12245 0.11745,0.31931 0.0864,0.43744 -0.0508,0.19353 -0.0578,0.19414 -0.0709,0.006 z M 8.10216,92.913157 c 9.9e-4,-0.28609 0.4299,-0.87441 0.82916,-1.13765 0.23163,-0.15271 0.55511,-0.22967 0.91974,-0.21878 l 0.56244,0.0168 -0.62493,0.0809 c -0.79673,0.10318 -1.13071,0.32272 -1.43953,0.94626 -0.13619,0.27497 -0.24728,0.41558 -0.24688,0.31247 z m 3.26798,-0.30633 c -0.0845,-0.23377 -0.33435,-0.54075 -0.55516,-0.68218 -0.22081,-0.14144 -0.35392,-0.2581 -0.29578,-0.25926 0.37422,-0.007 1.27025,1.10087 1.05997,1.31113 -0.0304,0.0304 -0.12449,-0.13592 -0.20903,-0.36969 z m 50.98349,0.28893 c -0.004,-0.11268 0.0905,-0.31218 0.21081,-0.44334 0.1203,-0.13116 0.17881,-0.17655 0.13003,-0.10085 -0.0488,0.0757 -0.14365,0.27519 -0.21081,0.44334 -0.0772,0.19328 -0.12502,0.23039 -0.13003,0.10085 z m -48.73322,-0.23257 c 0,-0.17186 0.0284,-0.24217 0.063,-0.15623 0.0347,0.0859 0.0347,0.22654 0,0.31247 -0.0347,0.0859 -0.063,0.0156 -0.063,-0.15624 z m 46.62025,0 c 0,-0.17186 0.0284,-0.24217 0.063,-0.15623 0.0347,0.0859 0.0347,0.22654 0,0.31247 -0.0347,0.0859 -0.063,0.0156 -0.063,-0.15624 z m 7.48937,-0.32288 c 0.006,-0.1456 0.0356,-0.17522 0.0755,-0.0755 0.0361,0.0902 0.0317,0.19803 -0.01,0.23956 -0.0415,0.0415 -0.0711,-0.0323 -0.0657,-0.16405 z M 6.11131,92.215317 c 0.006,-0.1456 0.0356,-0.17522 0.0755,-0.0755 0.0361,0.0902 0.0317,0.19803 -0.01,0.23956 -0.0415,0.0415 -0.0711,-0.0323 -0.0656,-0.16405 z m 59.0134,-0.18074 c -0.2245,-0.2042 -0.36158,-0.37129 -0.30461,-0.37129 0.057,0 0.26523,0.16874 0.46281,0.37496 0.45938,0.47949 0.37068,0.47744 -0.1582,-0.004 z m -2.0008,-0.19364 c 0.11866,-0.12389 0.24265,-0.19836 0.27553,-0.16547 0.0329,0.0329 -0.0642,0.13424 -0.21575,0.22525 -0.26326,0.1581 -0.26592,0.15544 -0.0598,-0.0598 z m 4.32141,-0.21403 c -0.31009,-0.65026 -0.83511,-1.19978 -1.52352,-1.59463 -0.35139,-0.20154 -0.57959,-0.36696 -0.50712,-0.36761 0.24073,-0.002 1.24287,0.70063 1.5938,1.11769 0.3764,0.44732 0.75958,1.12467 0.68081,1.20345 -0.0271,0.0271 -0.13691,-0.13439 -0.24397,-0.3589 z m -61.21337,0.2469 c -0.0193,-0.35577 0.86387,-1.46068 1.39918,-1.75052 0.39405,-0.21337 0.39721,-0.21325 0.0951,0.004 -0.47118,0.33804 -0.99005,0.9224 -1.25334,1.41155 -0.1295,0.2406 -0.23794,0.39157 -0.24098,0.3355 z m 54.23895,-0.0408 c 0,-0.0671 0.0875,-0.23111 0.19438,-0.36455 0.18328,-0.22877 0.18588,-0.22478 0.0456,0.0699 -0.18221,0.38259 -0.23994,0.45349 -0.23994,0.29469 z m -47.46653,-0.61611 c -0.1545,-0.23569 -0.25609,-0.42852 -0.22577,-0.42852 0.0869,0 0.60469,0.759 0.55302,0.81067 -0.0255,0.0255 -0.17276,-0.14647 -0.32725,-0.38215 z m 50.80994,0.35819 c 0.15467,-0.0298 0.40777,-0.0298 0.56244,0 0.15468,0.0298 0.0281,0.0542 -0.28122,0.0542 -0.30934,0 -0.43589,-0.0244 -0.28122,-0.0542 z m -2.78097,-0.65711 c 0.48403,-0.59567 1.61089,-1.37258 1.76595,-1.21753 0.0299,0.0299 -0.13021,0.13018 -0.35583,0.22281 -0.22562,0.0926 -0.69144,0.42355 -1.03515,0.73538 -0.34372,0.31182 -0.51245,0.42853 -0.37497,0.25934 z m -48.80752,-0.59278 -0.31247,-0.32308 0.40621,0.27665 c 0.39868,0.27154 0.49857,0.39207 0.31247,0.37707 -0.0516,-0.004 -0.23435,-0.15294 -0.40621,-0.33064 z m -0.62494,-0.41173 c -0.11265,-0.0728 -0.12806,-0.12192 -0.0386,-0.12307 0.0819,-0.001 0.18362,0.0543 0.22611,0.12307 0.0959,0.15518 0.0526,0.15518 -0.18748,0 z m -3.24967,-0.18748 c 0.17186,-0.0982 0.42496,-0.17815 0.56245,-0.17756 0.13748,5.8e-4 0.025,0.0821 -0.24998,0.18117 -0.62626,0.22562 -0.71173,0.22463 -0.31247,-0.004 z m 2.49975,-0.0625 c -0.25742,-0.0824 -0.26843,-0.10193 -0.0625,-0.11061 0.13748,-0.006 0.33434,0.044 0.43745,0.11061 0.219,0.14153 0.0669,0.14153 -0.37496,0 z m 52.21343,-0.0828 c 0.0859,-0.0347 0.22654,-0.0347 0.31247,0 0.0859,0.0347 0.0156,0.063 -0.15624,0.063 -0.17186,0 -0.24216,-0.0284 -0.15623,-0.063 z m 1.88262,-0.003 c 0.0902,-0.0361 0.19802,-0.0317 0.23956,0.01 0.0415,0.0415 -0.0323,0.0711 -0.16405,0.0657 -0.1456,-0.006 -0.17522,-0.0356 -0.0755,-0.0755 z M 9.50734,89.448557 c 0.18904,-0.0286 0.49838,-0.0286 0.68743,0 0.18905,0.0286 0.0344,0.0521 -0.34371,0.0521 -0.3781,0 -0.53277,-0.0234 -0.34372,-0.0521 z m 54.30697,0.001 c 0.15467,-0.0298 0.40777,-0.0298 0.56244,0 0.15468,0.0298 0.0281,0.0542 -0.28122,0.0542 -0.30934,0 -0.43589,-0.0244 -0.28122,-0.0542 z m -40.12092,-0.6195 c 0.0859,-0.0347 0.22654,-0.0347 0.31247,0 0.0859,0.0347 0.0156,0.063 -0.15623,0.063 -0.17185,0 -0.24216,-0.0284 -0.15624,-0.063 z m 26.12235,0 c 0.0859,-0.0347 0.22653,-0.0347 0.31246,0 0.0859,0.0347 0.0156,0.063 -0.15623,0.063 -0.17186,0 -0.24216,-0.0284 -0.15623,-0.063 z m -26.84102,-0.1672 c -0.22847,-0.14765 -0.0311,-0.14765 0.31246,0 0.16483,0.0708 0.18613,0.10976 0.0625,0.11429 -0.10311,0.004 -0.27184,-0.0477 -0.37496,-0.11429 z m 27.94578,-0.16956 c 1.11168,-0.52168 1.93724,-1.5667 2.17098,-2.74811 0.0876,-0.44286 0.10461,-0.46418 0.11524,-0.14452 0.0372,1.1174 -1.36735,2.79154 -2.60981,3.11082 -0.17186,0.0442 -0.0262,-0.054 0.32359,-0.21819 z m -28.83954,-0.36595 c -0.62579,-0.47731 -1.19542,-1.33912 -1.29831,-1.96424 -0.0581,-0.35325 -0.0282,-0.31697 0.15567,0.18845 0.28242,0.77642 0.80604,1.4758 1.36232,1.8196 0.38376,0.23717 0.51493,0.36671 0.37133,0.36671 -0.029,0 -0.29498,-0.18473 -0.59101,-0.41052 z m 24.76356,-0.0756 c -0.23908,-0.19863 -0.53557,-0.55016 -0.65886,-0.78117 -0.20496,-0.38404 -0.20534,-0.39325 -0.004,-0.10756 0.12087,0.17186 0.44202,0.52339 0.71367,0.78117 0.58692,0.55698 0.5599,0.61462 -0.0504,0.10756 z m -19.55528,-0.42003 c 0.26837,-0.32652 0.50798,-0.59368 0.53247,-0.59368 0.0895,0 -0.45348,0.69441 -0.73293,0.9374 -0.15811,0.13749 -0.0679,-0.0172 0.20046,-0.34372 z m -3.78169,-1.12488 c -0.2206,-0.15467 -0.4343,-0.36549 -0.47493,-0.46849 -0.0406,-0.103 0.0844,-0.0359 0.27783,0.14907 0.19343,0.18498 0.49232,0.39224 0.66416,0.46056 0.17186,0.0683 0.22732,0.1278 0.12324,0.13216 -0.10408,0.004 -0.36973,-0.11863 -0.5903,-0.2733 z m 1.34198,0.2333 c 0,-0.0263 0.11257,-0.0773 0.25015,-0.11333 0.13758,-0.036 0.21863,-0.0144 0.18011,0.0479 -0.0673,0.10886 -0.43026,0.16404 -0.43026,0.0654 z m 20.95081,-0.14439 c -0.12061,-0.31431 -0.085,-0.39541 0.0623,-0.14203 0.0729,0.12546 0.10631,0.25443 0.0741,0.28661 -0.0322,0.0322 -0.0936,-0.0329 -0.13644,-0.14458 z m 3.1483,0.10693 c 0.0902,-0.0361 0.19802,-0.0317 0.23956,0.01 0.0415,0.0415 -0.0323,0.0711 -0.16405,0.0657 -0.1456,-0.006 -0.17522,-0.0356 -0.0755,-0.0755 z m 0.8544,-0.0512 c 0.416,-0.12051 1.16883,-0.8759 1.16883,-1.1728 0,-0.0967 0.054,-0.20912 0.11998,-0.2499 0.0718,-0.0444 0.0677,0.0759 -0.0104,0.29998 -0.17084,0.49008 -1.03168,1.26241 -1.39101,1.24799 -0.22174,-0.009 -0.19803,-0.0353 0.11265,-0.12527 z m -21.81812,-0.0509 c 0.013,-0.23675 0.22132,-0.63542 0.22857,-0.43745 0.004,0.10311 -0.0477,0.27184 -0.11429,0.37496 -0.0666,0.10311 -0.11806,0.13123 -0.11428,0.0625 z m 20.16687,-0.34371 -0.3671,-0.40622 0.43683,0.37497 c 0.24026,0.20623 0.46055,0.38902 0.48954,0.40621 0.029,0.0172 -0.002,0.0312 -0.0697,0.0312 -0.0673,0 -0.28762,-0.1828 -0.48953,-0.40622 z m -22.48984,0.0312 c 0.12442,-0.13748 0.25435,-0.24997 0.28872,-0.24997 0.0344,0 -0.0393,0.11249 -0.16373,0.24997 -0.12442,0.13749 -0.25435,0.24998 -0.28872,0.24998 -0.0344,0 0.0393,-0.11249 0.16373,-0.24998 z m 19.94533,-0.32288 c 0.006,-0.14561 0.0356,-0.17522 0.0755,-0.0755 0.0361,0.0902 0.0317,0.19802 -0.01,0.23956 -0.0415,0.0415 -0.0711,-0.0323 -0.0657,-0.16405 z m -19.57744,-0.1521 c 0.0506,-0.0894 0.14107,-0.42686 0.20095,-0.74993 l 0.10885,-0.58741 -0.0435,0.60457 c -0.0239,0.3325 -0.11435,0.66997 -0.20094,0.74992 -0.12122,0.11191 -0.13626,0.10796 -0.0654,-0.0172 z m 2.21409,-0.14995 c 0,-0.17186 0.0284,-0.24217 0.063,-0.15624 0.0347,0.0859 0.0347,0.22654 0,0.31247 -0.0347,0.0859 -0.063,0.0156 -0.063,-0.15623 z m -7.60523,-0.68743 c 6.9e-4,-0.41246 0.024,-0.56613 0.0519,-0.34148 0.0278,0.22464 0.0272,0.56211 -9.9e-4,0.74992 -0.0285,0.18781 -0.0513,0.004 -0.0506,-0.40844 z m 2.09592,0.36454 c 0.006,-0.1456 0.0356,-0.17522 0.0755,-0.0755 0.0361,0.0902 0.0317,0.19803 -0.01,0.23956 -0.0415,0.0415 -0.0711,-0.0323 -0.0657,-0.16405 z m 22.77356,-0.36454 c 9.3e-4,-0.34372 0.0252,-0.4695 0.0539,-0.27951 0.0287,0.18999 0.028,0.47121 -0.002,0.62494 -0.0297,0.15373 -0.0532,-0.002 -0.0522,-0.34543 z m 2.10903,0.0875 c -0.0223,-0.5992 0.18467,-1.08826 0.61899,-1.46269 0.24024,-0.20711 0.23176,-0.17879 -0.0497,0.16616 -0.34922,0.42793 -0.42675,0.64263 -0.50427,1.39647 -0.0412,0.40068 -0.0467,0.39228 -0.065,-0.0999 z m -24.87968,-0.24998 c -0.0245,-0.54921 0.71889,-1.5259 1.16021,-1.52442 0.0767,2.6e-4 -0.0398,0.10974 -0.25885,0.24329 -0.42859,0.26133 -0.65468,0.59947 -0.79806,1.1936 -0.0739,0.30642 -0.0928,0.32242 -0.1033,0.0875 z m 5.51103,-0.46249 c 0.002,-0.20623 0.0306,-0.27547 0.0623,-0.15386 0.0317,0.12161 0.0296,0.29033 -0.005,0.37497 -0.0342,0.0846 -0.0602,-0.0149 -0.0576,-0.22112 z m 22.57101,-0.1694 c -0.23323,-0.49461 -0.5748,-0.76012 -1.16007,-0.90169 -0.32237,-0.078 -0.33321,-0.0925 -0.0772,-0.1035 0.432,-0.0186 1.06121,0.41461 1.33162,0.91673 0.12898,0.23951 0.20886,0.45989 0.1775,0.48973 -0.0314,0.0298 -0.15367,-0.15074 -0.2718,-0.40127 z m 2.30145,0.0444 c 0.003,-0.20623 0.0306,-0.27547 0.0622,-0.15386 0.0317,0.12161 0.0296,0.29033 -0.005,0.37496 -0.0342,0.0846 -0.0602,-0.0149 -0.0576,-0.2211 z m -7.50387,-0.18749 c 0,-0.17185 0.0284,-0.24216 0.063,-0.15623 0.0347,0.0859 0.0347,0.22654 0,0.31247 -0.0347,0.0859 -0.063,0.0156 -0.063,-0.15624 z m -24.88295,0 c -0.0106,-0.52957 0.93918,-1.95466 1.50439,-2.25715 0.12623,-0.0676 -0.0424,0.14904 -0.37462,0.4813 -0.37784,0.37784 -0.70186,0.85868 -0.86507,1.28373 -0.1435,0.37378 -0.26263,0.59524 -0.2647,0.49212 z m 4.97429,-0.34371 c -0.15546,-0.19824 -0.15103,-0.20266 0.0472,-0.0472 0.20819,0.16328 0.27441,0.26591 0.17154,0.26591 -0.0259,0 -0.12439,-0.0984 -0.21873,-0.21872 z m 2.3542,-0.0347 c -0.14308,-0.57005 -0.87607,-1.52575 -1.44876,-1.88894 -0.30991,-0.19654 -0.50465,-0.35734 -0.43276,-0.35734 0.58437,0 2.17634,1.91228 2.00926,2.41352 -0.0269,0.0807 -0.0844,0.006 -0.12774,-0.16724 z m 24.86192,-0.0638 c -0.12061,-0.3143 -0.085,-0.3954 0.0623,-0.14203 0.073,0.12546 0.10632,0.25443 0.0741,0.2866 -0.0322,0.0322 -0.0936,-0.0329 -0.13645,-0.14457 z m -7.20057,0.005 c -0.002,-0.3619 0.96235,-1.59519 1.43572,-1.83602 0.13748,-0.07 0.0368,0.0533 -0.22377,0.27399 -0.26056,0.22064 -0.63969,0.69048 -0.8425,1.04409 -0.20281,0.35361 -0.36906,0.58668 -0.36945,0.51794 z M 25.2245,83.413587 c -0.11265,-0.0728 -0.12807,-0.12192 -0.0386,-0.12307 0.0819,-10e-4 0.18361,0.0543 0.2261,0.12307 0.0959,0.15518 0.0526,0.15518 -0.18748,0 z m 23.4976,-0.12498 c 0.10311,-0.0666 0.27184,-0.11807 0.37496,-0.11429 0.12362,0.004 0.10233,0.0435 -0.0625,0.11429 -0.3436,0.14765 -0.54094,0.14765 -0.31246,0 z m -24.4023,-0.0884 c 0.15546,-0.0299 0.38045,-0.0288 0.49993,0.002 0.11951,0.0313 -0.008,0.0557 -0.28266,0.0544 -0.27498,-0.001 -0.37275,-0.027 -0.21727,-0.0569 z m 27.76826,-0.90718 c -0.36855,-0.38393 -0.81189,-0.6874 -1.24988,-0.85557 -0.3733,-0.14334 -0.59436,-0.26231 -0.49125,-0.26438 0.53126,-0.0107 1.95483,0.93949 2.25895,1.50772 0.17074,0.31905 0.13498,0.29226 -0.51782,-0.38777 z m -29.39665,-0.76975 c 0.0848,-0.0854 0.18565,-0.12383 0.22412,-0.0853 0.0385,0.0385 -0.0309,0.10837 -0.15415,0.1553 -0.17813,0.0678 -0.19249,0.0535 -0.07,-0.07 z m 24.87247,0 c 0.0848,-0.0854 0.18564,-0.12383 0.22412,-0.0853 0.0385,0.0385 -0.0309,0.10837 -0.15415,0.1553 -0.17813,0.0678 -0.19249,0.0535 -0.07,-0.07 z M 23.2247,81.294507 c 0.10311,-0.0698 0.29528,-0.12772 0.42703,-0.12877 0.31977,-0.003 0.22001,0.069 -0.23955,0.17178 -0.27384,0.0613 -0.3244,0.0497 -0.18748,-0.043 z m 2.31225,-0.006 c -0.16482,-0.0708 -0.1861,-0.10976 -0.0625,-0.11429 0.10312,-0.004 0.27185,0.0477 0.37498,0.11429 0.22847,0.14765 0.0311,0.14765 -0.31248,0 z m 23.06016,-0.12595 c 0.30905,-0.098 1.58997,-0.16594 1.48943,-0.079 -0.0286,0.0248 -0.44579,0.075 -0.92699,0.11156 -0.50851,0.0387 -0.74405,0.025 -0.56244,-0.0326 z m -24.33956,-0.0887 c 0.19,-0.0287 0.47122,-0.028 0.62494,0.002 0.15373,0.0297 -0.002,0.0532 -0.34542,0.0522 -0.34373,-9.3e-4 -0.4695,-0.0252 -0.27952,-0.0539 z"
       id="path9-5-8" /><circle
       style="fill:#00d4aa;stroke:#8800aa;stroke-width:1.662;stroke-dasharray:none;stroke-opacity:1"
       id="path17-1-43-0"
       cx="49.598846"
       cy="84.529587"
       r="4.25" /><circle
       style="fill:#8800aa;fill-opacity:1;stroke:none;stroke-width:0.684353;stroke-dasharray:none;stroke-opacity:1"
       id="path17-1-5-83-0"
       cx="49.593491"
       cy="84.47493"
       r="1.75" /><circle
       style="fill:#00d4aa;stroke:#8800aa;stroke-width:1.662;stroke-dasharray:none;stroke-opacity:1"
       id="path17-1-3-7-5"
       cx="64.847183"
       cy="93.928711"
       r="4.25" /><circle
       style="fill:#8800aa;fill-opacity:1;stroke:none;stroke-width:0.684353;stroke-dasharray:none;stroke-opacity:1"
       id="path17-1-5-4-4-5"
       cx="64.841797"
       cy="93.874054"
       r="1.75" /><circle
       style="fill:#00d4aa;stroke:#8800aa;stroke-width:1.662;stroke-dasharray:none;stroke-opacity:1"
       id="path17-1-4-5-5"
       cx="74.107605"
       cy="107.20412"
       r="4.25" /><circle
       style="fill:#8800aa;fill-opacity:1;stroke:none;stroke-width:0.684353;stroke-dasharray:none;stroke-opacity:1"
       id="path17-1-5-2-8-5"
       cx="74.102219"
       cy="107.14946"
       r="1.75" /><circle
       style="fill:#00d4aa;stroke:#8800aa;stroke-width:1.662;stroke-dasharray:none;stroke-opacity:1"
       id="path17-1-9-0-7"
       cx="24.147596"
       cy="85.266846"
       r="4.25" /><circle
       style="fill:#8800aa;fill-opacity:1;stroke:none;stroke-width:0.684353;stroke-dasharray:none;stroke-opacity:1"
       id="path17-1-5-8-2-9"
       cx="24.142225"
       cy="85.212189"
       r="1.75" /><circle
       style="fill:#00d4aa;fill-opacity:1;stroke:#8800aa;stroke-width:2.15053;stroke-miterlimit:4;stroke-dasharray:none;stroke-opacity:1"
       id="path17-1-9-8-4-0"
       cx="37.312485"
       cy="138.4404"
       r="10.51113" /><circle
       style="fill:#8800aa;fill-opacity:1;stroke:none;stroke-width:1.69255;stroke-dasharray:none;stroke-opacity:1"
       id="path17-1-5-8-9-1-8"
       cx="37.299194"
       cy="138.30522"
       r="4.3281126" /><circle
       style="fill:#00d4aa;stroke:#8800aa;stroke-width:1.662;stroke-dasharray:none;stroke-opacity:1"
       id="path17-1-6-7-1"
       cx="9.8138571"
       cy="94.434769"
       r="4.25" /><circle
       style="fill:#8800aa;fill-opacity:1;stroke:none;stroke-width:0.684353;stroke-dasharray:none;stroke-opacity:1"
       id="path17-1-5-0-5-4"
       cx="9.8084936"
       cy="94.380112"
       r="1.75" /><circle
       style="fill:#00d4aa;stroke:#8800aa;stroke-width:1.662;stroke-dasharray:none;stroke-opacity:1"
       id="path17-1-0-8-4"
       cx="0.28886276"
       cy="107.73329"
       r="4.25" /><circle
       style="fill:#8800aa;fill-opacity:1;stroke:none;stroke-width:0.684353;stroke-dasharray:none;stroke-opacity:1"
       id="path17-1-5-9-1-7"
       cx="0.28349167"
       cy="107.67863"
       r="1.75" /><circle
       style="fill:#ffffff;fill-opacity:1;stroke:none;stroke-width:0.754096;stroke-dasharray:none;stroke-opacity:1"
       id="path17-1-5-9-1-7-2"
       cx="40.65929"
       cy="135.61926"
       r="1.9283448" /></g></svg>
