<?xml version="1.0" encoding="UTF-8" standalone="no"?>
<!-- Created with Inkscape (http://www.inkscape.org/) -->

<svg
   width="132.50722mm"
   height="118.38281mm"
   viewBox="0 0 132.50722 118.38281"
   version="1.1"
   id="svg1"
   xml:space="preserve"
   inkscape:version="1.4.2 (f4327f4, 2025-05-13)"
   sodipodi:docname="logo beholder.svg"
   xmlns:inkscape="http://www.inkscape.org/namespaces/inkscape"
   xmlns:sodipodi="http://sodipodi.sourceforge.net/DTD/sodipodi-0.dtd"
   xmlns="http://www.w3.org/2000/svg"
   xmlns:svg="http://www.w3.org/2000/svg"><sodipodi:namedview
     id="namedview1"
     pagecolor="#ffffff"
     bordercolor="#000000"
     borderopacity="0.25"
     inkscape:showpageshadow="2"
     inkscape:pageopacity="0.0"
     inkscape:pagecheckerboard="0"
     inkscape:deskcolor="#d1d1d1"
     inkscape:document-units="mm"
     inkscape:zoom="0.77481166"
     inkscape:cx="303.29951"
     inkscape:cy="305.23547"
     inkscape:window-width="1440"
     inkscape:window-height="837"
     inkscape:window-x="-8"
     inkscape:window-y="-8"
     inkscape:window-maximized="1"
     inkscape:current-layer="layer1"
     showgrid="false" /><defs
     id="defs1" /><g
     inkscape:label="Livello 1"
     inkscape:groupmode="layer"
     id="layer1"
     transform="translate(-3.7439998,-333.2744)"><g
       id="g4323"><circle
         style="fill:none;stroke:#ffffff;stroke-width:6.73509;stroke-dasharray:none;stroke-opacity:1"
         id="path17-1-0-8-4-0-2-2"
         cx="69.967888"
         cy="425.79251"
         r="17.222694" /><circle
         style="fill:none;stroke:#ffffff;stroke-width:2.94391;stroke-dasharray:none;stroke-opacity:1"
         id="path17-1-0-8-4-0-2-8"
         cx="112.40123"
         cy="356.88293"
         r="7.5280428" /><circle
         style="fill:none;stroke:#ffffff;stroke-width:2.94391;stroke-dasharray:none;stroke-opacity:1"
         id="path17-1-0-8-4-0-2-1"
         cx="127.25121"
         cy="377.40732"
         r="7.5280428" /><circle
         style="fill:none;stroke:#ffffff;stroke-width:2.94391;stroke-dasharray:none;stroke-opacity:1"
         id="path17-1-0-8-4-0-2"
         cx="49.620731"
         cy="343.48172"
         r="7.5280428" /><circle
         style="fill:none;stroke:#ffffff;stroke-width:2.94391;stroke-dasharray:none;stroke-opacity:1"
         id="path17-1-0-8-4-0-2-5"
         cx="89.341461"
         cy="342.27438"
         r="7.5280428" /><circle
         style="fill:none;stroke:#ffffff;stroke-width:2.94391;stroke-dasharray:none;stroke-opacity:1"
         id="path17-1-0-8-4-0-9"
         cx="27.285366"
         cy="357.24512"
         r="7.5280428" /><circle
         style="fill:none;stroke:#ffffff;stroke-width:2.94391;stroke-dasharray:none;stroke-opacity:1"
         id="path17-1-0-8-4-0"
         cx="12.743998"
         cy="378.24817"
         r="7.5280428" /><path
         style="fill:#8800aa;fill-opacity:1;stroke:#ffffff;stroke-width:1.155;stroke-dasharray:none;stroke-opacity:1"
         d="m 47.907084,450.70271 c -1.488545,-0.37848 -3.240406,-1.04575 -3.830335,-1.45895 -0.293962,-0.2059 -1.061721,-0.2416 -3.519939,-0.16363 -3.669967,0.1163 -5.679313,-0.15879 -8.810863,-1.20656 -6.040102,-2.02093 -9.738819,-5.35068 -11.276622,-10.15163 -0.6105,-1.90598 -0.794891,-4.70773 -0.458637,-6.96806 l 0.243569,-1.63716 -0.6214,-0.96838 c -1.512879,-2.35764 -2.139892,-6.20371 -1.472795,-9.03432 0.423327,-1.79637 1.423801,-3.8155 2.612647,-5.27278 0.925904,-1.13493 0.960204,-1.21907 0.792186,-1.94337 -0.266503,-1.14884 -0.213327,-4.111 0.09733,-5.42117 0.607406,-2.5619 2.053955,-4.94906 4.280654,-7.0642 1.150907,-1.09325 1.461599,-1.50582 1.461599,-1.94087 0,-0.93492 0.747733,-3.5617 1.384323,-4.8631 0.707897,-1.44724 2.537781,-3.38573 3.959965,-4.19503 0.534436,-0.30412 1.006818,-0.58254 1.049732,-0.61874 0.192072,-0.16192 -1.521104,-2.42535 -2.719466,-3.59291 -1.487845,-1.44963 -3.98509,-2.86262 -5.909432,-3.34373 -1.119996,-0.27998 -3.631422,-0.49555 -5.965795,-0.51203 l -1.107309,-0.008 0.202334,-0.58049 c 0.111328,-0.31928 0.172356,-1.07259 0.135583,-1.67406 l -0.0667,-1.09355 3.01223,0.0953 c 3.587793,0.1135 5.263792,0.49463 7.916617,1.80049 2.92127,1.43802 5.424191,3.69045 7.401537,6.66084 l 0.685834,1.03025 0.324546,-0.85496 c 0.466893,-1.23002 1.648042,-2.93348 2.638519,-3.80533 0.95257,-0.83849 3.084563,-2.0179 4.54753,-2.51569 l 0.95809,-0.32599 -0.665403,-1.98294 c -1.240498,-3.69679 -2.844461,-6.29426 -5.372166,-8.69971 -1.600495,-1.52306 -2.012424,-1.79481 -4.743364,-3.12898 -2.147044,-1.04894 -3.294795,-1.73904 -4.068758,-2.44641 l -1.078093,-0.98531 0.832752,-0.52811 c 0.457999,-0.29046 1.054164,-0.79127 1.324803,-1.11289 l 0.492066,-0.58478 0.767292,0.66926 c 0.422036,0.36808 1.991652,1.25867 3.488049,1.97908 3.941679,1.89765 5.790345,3.42751 8.108735,6.71036 1.619526,2.29325 3.34637,6.05565 4.038329,8.79866 l 0.208351,0.82592 h 1.274472 c 1.215916,0 1.316018,-0.0367 2.17881,-0.79781 1.246391,-1.09958 2.76011,-1.82247 4.680222,-2.23508 l 1.625715,-0.34935 -0.125011,-2.82723 c -0.132007,-2.98771 -0.664951,-7.07858 -1.193137,-9.15957 -0.693421,-2.73198 -1.759666,-4.9717 -3.369055,-7.07687 -0.49031,-0.64136 -1.31479,-1.72264 -1.832185,-2.40285 -0.781395,-1.02728 -2.477499,-4.03595 -2.477499,-4.39475 0,-0.0558 0.378718,-0.10153 0.841584,-0.10153 0.501489,0 1.211702,-0.18738 1.757443,-0.46366 l 0.915859,-0.46366 0.557091,1.10358 c 0.3064,0.60698 1.296271,2.09051 2.199722,3.29672 2.670301,3.5652 3.562589,5.31643 4.683176,9.19121 0.826548,2.85805 1.409481,7.22076 1.520109,11.37654 l 0.05287,1.98338 0.975192,0.2293 c 2.07594,0.4881 3.655056,1.685 4.401467,3.33614 l 0.460487,1.01865 0.05395,12.75199 0.05395,12.752 -1.219958,0.13481 c -0.670969,0.0742 -1.414845,0.18215 -1.65305,0.24007 l -0.433122,0.10526 -0.05271,-12.666 -0.05271,-12.66599 -0.804065,-0.74996 c -1.073739,-1.00147 -2.016202,-1.23215 -4.540222,-1.11127 -2.448796,0.11723 -3.67544,0.51192 -4.664098,1.50059 -0.952694,0.95269 -1.328628,2.11172 -1.648805,5.08344 -0.313568,2.91028 -0.773527,4.03012 -2.411821,5.87204 -1.896447,2.13215 -2.646387,2.46239 -3.643752,1.60449 -0.893391,-0.76847 -0.752366,-1.59242 0.507926,-2.96765 1.61651,-1.76391 2.100227,-2.63979 2.220884,-4.02154 0.372063,-4.261 0.378998,-4.01632 -0.113971,-4.01352 -0.985626,0.006 -4.158038,0.78484 -5.128768,1.25977 -1.203648,0.58889 -2.852313,2.01358 -3.472904,3.0011 -1.02854,1.63666 -1.397197,4.11488 -1.074424,7.22267 0.246943,2.37764 1.201176,3.94715 3.176533,5.22464 1.731616,1.11987 2.129085,2.17683 1.217268,3.23691 -0.715873,0.83225 -1.533869,0.73279 -3.08677,-0.37535 -2.636887,-1.88164 -4.008616,-4.05468 -4.509623,-7.14394 -0.163851,-1.01032 -0.298253,-2.29608 -0.298688,-2.85723 -4.2e-4,-0.56115 -0.05007,-1.02027 -0.11024,-1.02027 -0.06017,0 -0.601388,0.2405 -1.202731,0.53443 -1.634468,0.79895 -3.026814,2.1729 -3.831019,3.7804 -0.600751,1.20084 -0.686984,1.55364 -0.686984,2.81085 0,0.80172 0.121901,1.72958 0.275739,2.09757 0.151599,0.36295 1.02372,1.45945 1.937931,2.43668 2.249991,2.40504 2.860678,3.65259 2.989016,6.10612 0.09236,1.76732 0.07883,1.84536 -0.406969,2.33114 -0.694898,0.6949 -1.548376,0.67044 -2.284276,-0.0655 -0.506822,-0.50683 -0.568519,-0.70062 -0.572328,-1.79763 -0.0062,-1.62822 -0.412287,-2.46805 -2.056971,-4.24824 -0.737346,-0.79809 -1.539825,-1.70674 -1.783285,-2.0192 l -0.442668,-0.56813 -0.772844,0.75465 c -2.144369,2.09393 -3.201254,4.65783 -3.066961,7.44011 0.09951,2.06032 0.603457,3.19743 1.956278,4.41372 1.530045,1.37565 2.66716,1.66411 7.239584,1.83648 5.366646,0.2023 7.378448,0.75333 9.335022,2.55684 1.779972,1.64072 2.811078,4.17377 2.811078,6.9058 0,1.19487 -0.0681,1.48115 -0.460659,1.93756 -0.595138,0.6919 -1.675097,0.74049 -2.311579,0.10402 -0.360992,-0.36099 -0.450738,-0.72483 -0.548928,-2.22517 -0.181219,-2.76923 -0.971072,-4.04434 -3.189142,-5.14838 -1.268641,-0.63147 -2.657225,-0.8233 -5.985449,-0.82687 -4.748822,-0.005 -7.194493,-0.69753 -9.248074,-2.61842 l -0.960048,-0.89802 -0.630014,0.91568 c -1.753307,2.54836 -2.028688,6.32976 -0.657955,9.03477 0.582762,1.15 2.046538,2.44528 3.079121,2.72467 1.006258,0.27227 2.770232,0.12175 3.690227,-0.31475 0.387782,-0.18402 1.232802,-0.80546 1.877804,-1.38099 0.90667,-0.80901 1.315583,-1.04643 1.802332,-1.04643 1.295074,0 2.006686,1.15161 1.416664,2.2926 -0.402585,0.77852 -2.131962,2.30247 -3.263527,2.87588 -2.000934,1.01394 -4.202211,1.28993 -6.18542,0.77549 -0.582761,-0.15113 -1.126527,-0.23345 -1.208375,-0.18287 -0.26529,0.16395 -0.157429,3.1863 0.156994,4.39971 0.630543,2.43331 1.643627,3.94826 3.775278,5.6454 1.218389,0.97003 4.41218,2.77826 4.591098,2.59933 0.02892,-0.0289 -0.04789,-0.6403 -0.170957,-1.35844 -0.5776,-3.37206 1.227593,-7.04532 4.605775,-9.37196 0.917787,-0.63212 1.164419,-0.71628 1.800326,-0.61445 0.871001,0.13947 1.417037,0.72691 1.417037,1.52449 0,0.82706 -0.269597,1.21934 -1.221358,1.7771 -1.156816,0.67795 -2.409349,2.08791 -2.999092,3.37606 -0.41919,0.91563 -0.477964,1.26686 -0.391778,2.34071 0.130297,1.62255 0.810113,2.66674 2.184298,3.35473 0.86783,0.43451 1.206587,0.48555 3.205267,0.48309 1.8315,-0.002 2.480437,-0.0857 3.595256,-0.46218 1.909352,-0.64484 5.264305,-2.38842 6.385701,-3.31869 1.349836,-1.11973 2.41165,-1.01495 2.957686,0.29189 0.548523,1.31283 -0.26697,2.2284 -3.685967,4.1382 l -1.722318,0.96206 1.426413,0.24059 c 0.786728,0.13263 2.174269,0.19795 3.094093,0.14554 1.907985,-0.10884 3.026349,-0.52436 4.59172,-1.70623 l 1.016116,-0.76716 1.033298,0.54353 c 0.568301,0.29894 1.333044,0.64803 1.6994,0.77573 l 0.666117,0.23221 -0.568954,0.60149 c -1.394399,1.4742 -4.092298,2.88595 -6.483984,3.39296 -1.751674,0.37133 -4.660879,0.32658 -6.328249,-0.0973 z m 36.48549,-0.0165 c -1.990439,-0.52156 -4.75201,-1.99137 -5.597621,-2.97928 l -0.685926,-0.80134 0.467391,-0.12501 c 0.257065,-0.0687 0.986963,-0.37633 1.621983,-0.68352 l 1.154592,-0.55852 0.961775,0.63458 c 1.877338,1.23868 2.833281,1.49817 5.528724,1.50079 3.539966,0.003 3.602346,-0.10962 0.998702,-1.80887 -1.174277,-0.7664 -2.316617,-1.62431 -2.538557,-1.90646 -0.893983,-1.13651 -0.182463,-2.80072 1.190929,-2.78558 0.461871,0.005 0.992623,0.27584 1.903615,0.97101 4.843669,3.69612 10.641959,4.63395 16.605499,2.68581 5.21353,-1.70315 8.8711,-5.17882 9.73375,-9.24968 0.29288,-1.3821 0.38794,-4.32989 0.13932,-4.31907 -0.0802,0.003 -0.62674,0.17553 -1.21461,0.38232 -0.58786,0.2068 -1.43131,0.37884 -1.87432,0.38234 -1.30753,0.0109 -3.16463,-0.68221 -4.44166,-1.65627 -0.64131,-0.48915 -1.49696,-1.06183 -1.90143,-1.2726 -1.4769,-0.7696 -1.67953,-2.38707 -0.39316,-3.13835 0.85628,-0.50009 1.77629,-0.22217 3.26756,0.98704 1.57232,1.27493 2.23528,1.58845 3.35894,1.58845 1.19266,0 3.1455,-0.93114 3.82717,-1.82486 1.70543,-2.23594 1.93796,-5.86582 0.56158,-8.76655 -0.25358,-0.53444 -0.62947,-1.18826 -0.8353,-1.45296 l -0.37422,-0.48124 -1.16576,1.2722 c -2.21529,2.41759 -4.02193,3.03747 -9.55196,3.27737 -4.19599,0.18201 -5.70229,0.50718 -7.125578,1.53822 -0.998033,0.72296 -1.450513,1.69853 -1.627845,3.50968 -0.121279,1.23894 -0.218644,1.51866 -0.660862,1.89904 -0.695955,0.59864 -1.548998,0.57771 -2.180209,-0.0535 -0.478306,-0.47829 -0.496171,-0.57561 -0.419206,-2.28347 0.09749,-2.16324 0.644925,-3.51597 2.016109,-4.98188 1.844951,-1.9724 4.295566,-2.69858 9.803271,-2.90499 3.57978,-0.13418 3.85652,-0.1722 4.99883,-0.68746 2.68367,-1.21054 4.52831,-4.2645 4.5214,-7.48561 -0.005,-2.33374 -0.98659,-4.59643 -2.88221,-6.64387 l -1.24246,-1.34197 -0.91237,0.83106 c -0.5018,0.45709 -1.53819,1.33209 -2.30309,1.94446 -1.63959,1.31263 -2.19708,2.26084 -2.31279,3.93365 -0.1146,1.65593 0.2507,2.25234 1.54657,2.52548 1.26068,0.26573 1.71767,1.66681 0.88778,2.72186 -0.39156,0.49778 -0.49852,0.52769 -1.62922,0.4557 -1.71689,-0.1093 -2.5861,-0.72473 -3.42209,-2.42284 -0.59282,-1.20421 -0.64248,-1.44817 -0.62469,-3.06869 0.0336,-3.06034 1.05631,-4.89641 3.95746,-7.10484 1.96601,-1.4966 2.57369,-2.37562 2.68253,-3.88034 0.0666,-0.91985 -0.0155,-1.33977 -0.44932,-2.30702 -0.67109,-1.4954 -2.3437,-3.12751 -4.0195,-3.9222 l -1.22605,-0.58142 -0.14492,1.11869 c -0.38243,2.95202 -0.55231,3.67452 -1.16871,4.9705 -0.82748,1.73973 -2.270527,3.33469 -4.161206,4.59926 -1.101012,0.73639 -1.634266,0.9743 -2.183909,0.9743 -1.313779,0 -2.028968,-1.39923 -1.269435,-2.48362 0.166557,-0.2378 0.800582,-0.77115 1.408937,-1.18522 1.678627,-1.14253 3.015635,-2.66474 3.524245,-4.01241 0.599539,-1.58865 0.660318,-5.09234 0.116926,-6.73982 -0.975582,-2.95769 -3.752126,-4.97277 -7.685005,-5.5774 -0.801639,-0.1233 -1.677336,-0.2589 -1.945985,-0.30147 l -0.488443,-0.0774 0.07183,2.17223 c 0.09127,2.75882 0.284882,3.23386 1.609016,3.94715 1.18499,0.63835 1.653236,1.30658 1.458707,2.08168 -0.349252,1.39154 -1.680663,1.67763 -3.350381,0.71996 -2.157866,-1.23766 -2.804579,-2.58587 -2.986544,-6.22604 -0.140715,-2.81621 -0.309401,-3.37672 -1.298417,-4.31597 -1.041181,-0.98876 -2.291055,-1.39367 -4.568241,-1.47991 -3.230066,-0.12237 -4.668576,0.55298 -5.218701,2.44994 -0.141803,0.48888 -0.190221,4.60355 -0.150977,12.81757 0.0381,7.97348 -0.0078,12.09796 -0.136516,12.09878 -0.106975,7e-4 -0.8745,-0.10231 -1.70579,-0.22879 l -1.511449,-0.23008 0.05395,-12.74324 0.05395,-12.74326 0.463644,-1.02599 c 0.655156,-1.44977 2.054685,-2.65545 3.656704,-3.15027 0.695691,-0.21488 1.386842,-0.39067 1.535922,-0.39067 0.212145,0 0.271463,-0.3906 0.273034,-1.79764 0.0078,-7.42889 1.738582,-14.44905 4.591175,-18.62736 0.394017,-0.57714 1.263883,-1.737 1.933033,-2.57748 0.669149,-0.84048 1.48416,-2.0301 1.811147,-2.64357 l 0.594517,-1.11543 1.024108,0.35376 c 0.563248,0.19456 1.352044,0.35663 1.752872,0.36011 0.400811,0.003 0.728762,0.0518 0.728762,0.10744 0,0.51578 -2.054172,3.95413 -3.373781,5.64719 -0.909873,1.16734 -1.936812,2.58802 -2.2821,3.15707 -1.877882,3.09488 -3.283662,9.58904 -3.283662,15.16935 v 1.87897 l 1.484316,0.23617 c 1.909104,0.30374 3.313811,0.95548 4.589263,2.12924 l 1.019755,0.93847 1.338812,-0.0238 1.338797,-0.0238 0.445731,-1.54392 c 1.66992,-5.78422 4.913062,-10.55149 8.942125,-13.14449 0.739104,-0.47568 2.436984,-1.39203 3.773054,-2.03635 1.33608,-0.64432 2.63358,-1.39143 2.88335,-1.66023 l 0.45413,-0.48876 0.67103,0.74274 c 0.36906,0.40853 1.01943,0.91513 1.44524,1.12581 l 0.77421,0.38304 -1.00228,0.90112 c -0.67754,0.6092 -2.02772,1.40172 -4.16752,2.44631 -2.92503,1.42789 -3.29856,1.67202 -4.921536,3.21649 -2.601219,2.4754 -4.17326,5.0663 -5.449116,8.98077 l -0.553359,1.69779 1.416757,0.50008 c 1.936516,0.68351 3.441947,1.62915 4.631104,2.909 1.00237,1.07884 2.26329,3.17398 2.26329,3.76069 0,0.55167 0.27665,0.33074 0.87453,-0.69836 0.32066,-0.55195 1.37008,-1.80541 2.33204,-2.78547 2.59344,-2.64219 4.94722,-4.09595 8.20171,-5.06559 1.41962,-0.42296 2.22855,-0.52648 4.77033,-0.61041 l 3.06082,-0.10107 v 1.17901 c 0,0.64844 0.0854,1.40332 0.18954,1.67749 0.18667,0.49101 0.17573,0.4986 -0.72877,0.50573 -2.42343,0.0191 -5.11012,0.23454 -6.15037,0.49314 -1.27069,0.31587 -2.97154,1.12724 -4.52617,2.15914 -1.09953,0.72982 -3.63212,3.32914 -4.19246,4.30292 l -0.34706,0.60313 0.94158,0.47713 c 1.49074,0.75541 2.8377,1.92919 3.70604,3.22955 0.94857,1.4205 1.77806,3.88861 1.78296,5.30507 0.003,0.96983 0.0415,1.04201 0.95333,1.8039 2.14051,1.78851 3.76884,4.0875 4.62235,6.52614 0.60188,1.71974 0.80447,4.43983 0.46078,6.1868 l -0.23133,1.17577 0.88859,1.01534 c 1.10309,1.26043 2.29108,3.67145 2.73276,5.54611 0.25532,1.08369 0.31125,1.93782 0.23543,3.59526 -0.11568,2.52985 -0.5963,4.14897 -1.63566,5.51061 -0.65085,0.85265 -0.66374,0.9039 -0.46287,1.84055 0.50455,2.35263 0.15253,5.94326 -0.84143,8.58413 -1.71516,4.55678 -6.39382,8.1989 -12.68574,9.87531 -1.78494,0.47555 -7.084071,0.72126 -8.78316,0.40726 -0.99923,-0.18467 -1.105007,-0.16149 -2.540112,0.5568 -2.986295,1.49468 -6.840607,1.94217 -9.876549,1.14667 z M 65.591829,443.7546 c -3.746094,-0.83841 -7.575667,-3.18075 -9.959749,-6.09179 -1.276307,-1.55843 -2.832831,-4.6381 -3.386112,-6.69959 -0.60949,-2.27091 -0.609179,-6.91855 6.22e-4,-9.13389 1.813448,-6.58814 6.732948,-11.22189 13.445465,-12.66452 2.590505,-0.55673 6.183787,-0.48148 8.587243,0.17984 5.794294,1.5943 10.335061,5.78442 12.219069,11.27545 2.253459,6.56781 0.452169,13.98941 -4.548214,18.73927 -2.493202,2.3683 -5.590064,3.86513 -8.938983,4.32057 -1.470027,0.1999 -6.627778,0.25181 -7.419341,0.0746 z m 6.934286,-6.49669 c 3.576147,-0.96494 6.592825,-3.84145 7.75757,-7.39706 0.385108,-1.17566 0.463286,-1.79687 0.44822,-3.56174 -0.02737,-3.20592 -0.810191,-5.19451 -2.958106,-7.51452 -2.576294,-2.7827 -6.364166,-4.04699 -10.136008,-3.38311 -2.442047,0.42983 -4.233013,1.38079 -6.029887,3.20175 -2.901851,2.94076 -3.926099,6.6578 -2.919312,10.59434 0.497587,1.94555 1.19449,3.21237 2.591377,4.71066 3.053169,3.27477 7.079402,4.47399 11.246146,3.34968 z m -5.038788,-3.9436 c -1.948364,-0.63541 -3.620103,-2.1194 -4.499407,-3.9941 -0.433324,-0.92388 -0.5055,-1.34128 -0.5055,-2.92393 0,-1.59775 0.07028,-1.99622 0.522417,-2.96088 1.350505,-2.88158 4.567945,-4.61968 7.589489,-4.09992 2.518049,0.43315 4.386198,1.7765 5.436009,3.90895 0.586819,1.192 0.638736,1.44819 0.638736,3.15185 0,1.69939 -0.05286,1.96162 -0.631584,3.13731 -1.216756,2.47157 -3.405268,3.88726 -6.170244,3.99132 -0.954871,0.0359 -1.873062,-0.0452 -2.379916,-0.2106 z m 35.865533,5.74884 c -0.18103,-0.0726 -0.63663,-0.49169 -1.01246,-0.93122 -1.01963,-1.19242 -1.55596,-1.35212 -3.516689,-1.0471 -2.005085,0.31192 -4.261918,0.14693 -4.955758,-0.36241 -0.723928,-0.53136 -0.778721,-1.79157 -0.10713,-2.46319 0.458808,-0.45883 0.624198,-0.49621 2.100196,-0.47472 0.881186,0.0124 2.389229,-0.0369 3.35119,-0.11039 2.059831,-0.15749 2.964571,0.039 4.306011,0.93557 1.05368,0.7042 2.20431,2.26906 2.20431,2.99791 0,1.01368 -1.37156,1.85613 -2.3697,1.45555 z M 44.700527,411.86679 c -0.557013,-0.18444 -0.964806,-0.68591 -1.086847,-1.33654 -0.185697,-0.98986 0.283933,-1.55015 1.622403,-1.93562 3.769152,-1.08544 5.153491,-2.70887 5.496664,-6.44596 0.243475,-2.65169 0.749878,-4.29747 1.790281,-5.8182 1.452022,-2.12243 4.31228,-4.13759 5.872769,-4.13759 1.153426,0 1.895125,1.09851 1.479604,2.19142 -0.143202,0.37674 -0.557417,0.69355 -1.471193,1.12529 -1.450793,0.68544 -2.976733,2.07272 -3.579474,3.25419 -0.226217,0.44343 -0.50124,1.48572 -0.611215,2.3162 -0.109929,0.83048 -0.285488,2.16135 -0.390099,2.95748 -0.320644,2.44029 -1.326,4.1062 -3.534881,5.85743 -1.381618,1.09536 -4.699409,2.26614 -5.588012,1.9719 z m 45.28068,-1.17574 c -2.378656,-0.62174 -4.212162,-2.1267 -5.211269,-4.2775 -0.475725,-1.0241 -0.520132,-1.35276 -0.621602,-4.60097 -0.131385,-4.20787 -0.298844,-4.70474 -2.219687,-6.58812 -1.462143,-1.43365 -1.64274,-2.09916 -0.798654,-2.94325 1.063618,-1.06361 2.581332,-0.3728 4.347809,1.97897 1.530526,2.03763 1.864479,3.23308 1.894255,6.78108 0.01399,1.67 0.123766,3.22195 0.256365,3.62357 0.308391,0.93446 2.074385,2.59091 3.051475,2.86219 0.417355,0.11584 1.265656,0.21118 1.885112,0.21179 0.935839,9e-4 1.206929,0.0818 1.603279,0.47809 0.601248,0.60125 0.633403,1.60382 0.07432,2.31469 -0.365346,0.46443 -0.523444,0.511 -1.700457,0.50085 -0.713728,-0.006 -1.866112,-0.1598 -2.56087,-0.34139 z M 11.811118,384.28193 c 0.24175,-0.0465 0.591547,-0.0448 0.777352,0.003 0.185806,0.0487 -0.01244,0.0866 -0.439527,0.0846 -0.42754,-0.002 -0.579559,-0.042 -0.337825,-0.0885 z m 114.754152,0.003 c 0.18705,-0.0488 0.49314,-0.0488 0.68019,0 0.18705,0.0488 0.0341,0.0889 -0.34009,0.0889 -0.3741,0 -0.52714,-0.04 -0.3401,-0.0889 z M 10.849328,384.09191 c 0.140249,-0.0561 0.307894,-0.0493 0.372483,0.0155 0.06453,0.0645 -0.05022,0.11056 -0.255091,0.10216 -0.226387,-0.009 -0.272427,-0.0553 -0.117392,-0.11739 z m 2.319898,0.005 c 0.133563,-0.0539 0.352238,-0.0539 0.485847,0 0.133563,0.0539 0.02426,0.098 -0.242916,0.098 -0.267218,0 -0.376556,-0.0442 -0.242931,-0.098 z m 112.327194,0 c 0.13356,-0.0539 0.35224,-0.0539 0.48584,0 0.13357,0.0539 0.0243,0.098 -0.24291,0.098 -0.26722,0 -0.37654,-0.0442 -0.24293,-0.098 z m 2.33205,0 c 0.13357,-0.0539 0.35224,-0.0539 0.48585,0 0.13356,0.0539 0.0243,0.098 -0.24293,0.098 -0.2672,0 -0.37653,-0.0442 -0.24292,-0.098 z M 9.7197381,383.83668 c -0.3552389,-0.22956 -0.048356,-0.22956 0.4858319,0 0.256287,0.11008 0.28939,0.17066 0.09718,0.1777 -0.160321,0.006 -0.4226883,-0.0742 -0.5830099,-0.1777 z m 4.4697559,0 c 0.160337,-0.10356 0.378966,-0.18839 0.485847,-0.18839 0.106819,0 0.06313,0.0847 -0.09718,0.18839 -0.160337,0.10355 -0.37895,0.1884 -0.485847,0.1884 -0.106819,0 -0.06313,-0.0847 0.09718,-0.1884 z m -5.7632129,-0.7731 c -0.4328574,-0.31834 -1.018511,-0.92861 -1.30148,-1.35621 -0.7187651,-1.08613 -0.6439608,-1.21723 0.1046421,-0.18332 0.5554115,0.76714 0.8263148,1.03425 1.895592,1.86918 0.6384877,0.49857 0.049756,0.22082 -0.6987696,-0.32965 z m 6.5405649,0.49527 c 0,-0.0535 0.174907,-0.19076 0.388684,-0.30517 0.213778,-0.11444 0.388653,-0.16429 0.388653,-0.11086 0,0.0535 -0.174875,0.19077 -0.388653,0.30517 -0.213777,0.11444 -0.388684,0.16429 -0.388684,0.11086 z m 108.293914,-0.41919 c -0.61294,-0.48309 -1.79684,-2.02987 -1.79684,-2.34763 0,-0.0861 0.2941,0.27936 0.65357,0.81236 0.35947,0.53299 0.99245,1.20959 1.40663,1.50354 0.41419,0.29393 0.66667,0.53346 0.56104,0.53226 -0.10557,-0.001 -0.47659,-0.22642 -0.8244,-0.50053 z m 7.49202,-0.37106 c 0.45933,-0.39987 1.09253,-1.1758 1.40711,-1.72427 0.5973,-1.04139 0.79766,-1.11584 0.27312,-0.10137 -0.38466,0.74381 -1.58127,2.07361 -2.10997,2.34479 -0.22299,0.11444 -0.0295,-0.11926 0.42974,-0.51909 z m -114.814239,0.22991 c 0,-0.0334 0.284212,-0.31764 0.631599,-0.63158 l 0.6316,-0.57079 -0.570805,0.63158 c -0.532042,0.58875 -0.692394,0.72095 -0.692394,0.57079 z m 1.360362,-1.68823 c 0.114438,-0.21375 0.251732,-0.38866 0.305188,-0.38866 0.05349,0 0.0031,0.17491 -0.110861,0.38866 -0.114438,0.21379 -0.251748,0.3887 -0.305188,0.3887 -0.05349,0 -0.0031,-0.17491 0.110861,-0.3887 z m -5.878723,-0.51737 c 0.133562,-0.0539 0.352238,-0.0539 0.485847,0 0.133562,0.054 0.02426,0.098 -0.242916,0.098 -0.267218,0 -0.376525,-0.0442 -0.242931,-0.098 z m 1.178179,-0.005 c 0.140249,-0.0561 0.307909,-0.0493 0.372482,0.0156 0.06453,0.0645 -0.05022,0.11055 -0.255059,0.10215 -0.226403,-0.009 -0.272458,-0.0554 -0.117392,-0.11739 z m 114.404171,-0.0477 c 0.53444,-0.0692 1.17314,-0.23733 1.41936,-0.37371 1.00173,-0.55485 1.52007,-2.31554 0.99915,-3.3939 -0.19809,-0.41005 -0.19478,-0.41168 0.0972,-0.0473 0.42098,0.52544 0.37798,1.82819 -0.0854,2.58819 -0.55375,0.90821 -1.47543,1.41112 -2.52744,1.37907 l -0.87452,-0.0266 z m -116.809197,-0.64543 -0.5707737,-0.63162 0.6792097,0.58303 c 0.373555,0.32066 0.716091,0.60487 0.76115,0.6316 0.04509,0.0267 -0.0031,0.0485 -0.108373,0.0485 -0.104642,0 -0.447209,-0.28421 -0.761151,-0.63162 z m 3.041633,0.58301 c 0.04509,-0.0267 0.387595,-0.31094 0.76115,-0.6316 l 0.679225,-0.58303 -0.570804,0.63162 c -0.313927,0.34737 -0.656447,0.6316 -0.761151,0.6316 -0.104642,0 -0.153465,-0.0219 -0.108374,-0.0485 z m 111.652474,-0.72933 c -0.39739,-0.43985 -0.69518,-0.96769 -0.68527,-1.21461 0.014,-0.34477 0.0549,-0.3079 0.19477,0.17516 0.0975,0.33652 0.48618,0.88308 0.86376,1.21461 0.37758,0.33151 0.60619,0.60276 0.50802,0.60276 -0.0981,0 -0.49474,-0.35007 -0.88128,-0.77792 z M 6.2369761,379.64162 c 0.00933,-0.22641 0.055353,-0.27245 0.1173919,-0.11739 0.05613,0.14024 0.049289,0.30789 -0.015549,0.37246 -0.064527,0.0645 -0.1105505,-0.0502 -0.1019988,-0.25506 z m 126.5292039,-0.081 c 0,-0.26722 0.0442,-0.37654 0.0981,-0.24293 0.054,0.13356 0.054,0.35224 0,0.48584 -0.054,0.13357 -0.0981,0.0243 -0.0981,-0.24291 z M 6.0802462,378.20025 c 0,-0.481 0.037939,-0.67777 0.084273,-0.43726 0.046335,0.24049 0.046335,0.63402 0,0.87451 -0.046335,0.24049 -0.084273,0.0437 -0.084273,-0.43725 z m 3.278158,-0.0109 c -0.017104,-0.5523 0.08785,-1.02804 0.2785531,-1.2632 0.1682825,-0.20748 0.2354214,-0.24605 0.1492666,-0.0857 -0.086139,0.16034 -0.2115387,0.72878 -0.2785376,1.26321 l -0.1219011,0.97168 z m 5.4670278,0.0109 c 0,-0.481 0.03794,-0.67777 0.08427,-0.43726 0.04633,0.24049 0.04633,0.63402 0,0.87451 -0.04634,0.24049 -0.08427,0.0437 -0.08427,-0.43725 z m 118.149488,0 c 0,-0.3741 0.04,-0.52715 0.0889,-0.3401 0.0488,0.18705 0.0488,0.49313 0,0.68018 -0.0488,0.18704 -0.0889,0.0341 -0.0889,-0.34008 z M 14.493485,376.89682 c -0.10542,-0.27696 -0.08319,-0.29928 0.10884,-0.10884 0.132785,0.13185 0.192507,0.28863 0.13263,0.34848 -0.05986,0.0599 -0.168501,-0.048 -0.24147,-0.23968 z M 6.2246305,376.7265 c 0.00154,-0.20487 0.091737,-0.50366 0.2002193,-0.664 0.14398,-0.21288 0.1620942,-0.13418 0.066859,0.29152 -0.1598241,0.71457 -0.2710588,0.86968 -0.2670783,0.37248 z m 126.5262195,0 c 0.009,-0.22642 0.0553,-0.27244 0.11739,-0.11739 0.0561,0.14025 0.0493,0.30791 -0.0155,0.3725 -0.0645,0.0645 -0.11055,-0.0502 -0.102,-0.25508 z M 17.897244,376.51566 c -0.0078,-0.12485 -0.06562,-0.38722 -0.127187,-0.58301 -0.106353,-0.33838 -0.100911,-0.3388 0.110861,-0.009 0.122523,0.19108 0.179742,0.45343 0.127188,0.58302 -0.06904,0.17003 -0.09982,0.17243 -0.110862,0.008 z m 107.301366,-0.50175 c 0.30078,-0.29391 0.6548,-0.53175 0.78672,-0.5285 0.13201,0.003 0.065,0.10262 -0.1488,0.22087 -0.21378,0.11817 -0.56779,0.35605 -0.78672,0.52853 -0.21892,0.17245 -0.1519,0.0731 0.1488,-0.2209 z m -114.748819,-0.0972 c 0.251701,-0.24047 0.562067,-0.43458 0.689721,-0.43133 0.127654,0.003 0.05722,0.10293 -0.15659,0.22153 -0.213778,0.11864 -0.524143,0.31272 -0.68972,0.43135 -0.165562,0.11864 -0.09516,0.019 0.156589,-0.22155 z m 3.162166,0.039 c -0.371083,-0.26198 -0.589712,-0.47588 -0.485847,-0.47535 0.103864,5.3e-4 0.45122,0.21601 0.771863,0.47885 0.74865,0.61367 0.585359,0.61166 -0.286016,-0.003 z m 114.853603,0 c -0.37108,-0.26198 -0.58972,-0.47588 -0.48584,-0.47535 0.10386,5.3e-4 0.4512,0.21601 0.77186,0.47885 0.74865,0.61367 0.58536,0.61166 -0.28602,-0.003 z m 3.92072,-0.34325 c -0.13356,-0.36944 -0.60773,-1.0971 -1.05362,-1.61699 -0.6512,-0.75932 -0.68513,-0.83059 -0.17243,-0.36229 0.72232,0.65981 1.64501,2.12284 1.53912,2.4405 -0.0386,0.11583 -0.17947,-0.0917 -0.31307,-0.46122 z M 6.6103135,375.49092 c 0,-0.1006 0.08645,-0.23629 0.1921185,-0.3016 0.1100841,-0.0681 0.1427362,0.009 0.076344,0.18285 -0.1292088,0.33669 -0.2684776,0.3983 -0.2684776,0.11879 z m 114.8536065,0.0448 c 0,-0.36242 1.13127,-1.7541 1.78033,-2.19016 l 0.64889,-0.43595 -0.71723,0.65333 c -0.39446,0.35932 -0.94103,0.99347 -1.21461,1.4092 -0.27356,0.41573 -0.49738,0.66936 -0.49738,0.56358 z M 11.811118,375.34196 c 0.24175,-0.0465 0.591547,-0.0448 0.777352,0.003 0.185806,0.0487 -0.01244,0.0866 -0.439527,0.0846 -0.42754,-0.002 -0.579559,-0.042 -0.337825,-0.0885 z m 5.400713,-0.42604 c -0.160275,-0.30993 -0.659245,-0.87838 -1.108848,-1.2632 -0.449588,-0.38483 -0.758212,-0.69971 -0.685834,-0.69971 0.263331,0 1.720033,1.44276 1.996487,1.97738 0.156155,0.30197 0.240179,0.54901 0.186755,0.54901 -0.05349,0 -0.228316,-0.25357 -0.38856,-0.56348 z m 109.452879,0.42604 c 0.24175,-0.0465 0.59154,-0.0448 0.77735,0.003 0.18581,0.0487 -0.0124,0.0866 -0.43953,0.0846 -0.42754,-0.002 -0.57956,-0.042 -0.33782,-0.0885 z M 7.1564892,374.6049 c 0.3744569,-0.73601 2.2920502,-2.2355 2.8547388,-2.23233 0.106819,6.1e-4 -0.2554949,0.2591 -0.805309,0.57444 -0.5498296,0.31534 -1.2803494,0.90482 -1.6234293,1.30996 -0.3430798,0.40513 -0.534763,0.5617 -0.4260005,0.34793 z M 129.92516,372.9145 c -0.20961,-0.12159 -0.73433,-0.3317 -1.16602,-0.46692 -0.43171,-0.13528 -0.61001,-0.24982 -0.39624,-0.25463 0.41222,-0.009 2.04055,0.66721 2.04055,0.84774 0,0.14118 -0.0319,0.13279 -0.47829,-0.12625 z m -5.79234,-0.17994 c 0.13185,-0.13279 0.28863,-0.19253 0.34848,-0.13263 0.0599,0.0599 -0.0481,0.1685 -0.23969,0.24148 -0.27698,0.10542 -0.29929,0.0832 -0.10884,-0.10884 z m -109.943326,-0.1702 c -0.160321,-0.10355 -0.204044,-0.18839 -0.09718,-0.18839 0.106819,0 0.32551,0.0847 0.485847,0.18839 0.160338,0.10355 0.20406,0.18839 0.09718,0.18839 -0.106819,0 -0.325525,-0.0847 -0.485847,-0.18839 z m -3.728865,-0.32711 c 0.140248,-0.0561 0.307909,-0.0493 0.372482,0.0155 0.06453,0.0645 -0.05022,0.11055 -0.255059,0.102 -0.226388,-0.009 -0.272443,-0.0554 -0.117392,-0.1174 z m 2.915067,0 c 0.140248,-0.0561 0.307909,-0.0493 0.372482,0.0155 0.06453,0.0645 -0.05022,0.11055 -0.255075,0.102 -0.226387,-0.009 -0.272442,-0.0554 -0.117392,-0.1174 z m 112.132864,0 c 0.14025,-0.0561 0.30791,-0.0493 0.37248,0.0155 0.0645,0.0645 -0.0502,0.11055 -0.25506,0.102 -0.2264,-0.009 -0.27244,-0.0554 -0.11739,-0.1174 z M 11.714359,372.03621 c 0.295392,-0.0446 0.732666,-0.0435 0.971694,0.003 0.239029,0.0462 -0.0031,0.0827 -0.53711,0.0812 -0.534437,-10e-4 -0.729976,-0.0392 -0.434584,-0.0838 z m 114.948091,0.002 c 0.24049,-0.0463 0.63403,-0.0463 0.87452,0 0.24049,0.0463 0.0437,0.0843 -0.43726,0.0843 -0.48099,0 -0.67776,-0.0379 -0.43726,-0.0843 z M 26.384199,361.94062 c 0.133562,-0.054 0.352238,-0.054 0.485831,0 0.133563,0.054 0.02426,0.098 -0.242931,0.098 -0.267218,0 -0.376509,-0.0442 -0.2429,-0.098 z m 1.556959,-0.009 c 0.241734,-0.0465 0.591531,-0.0448 0.777352,0.003 0.185806,0.0487 -0.01244,0.0866 -0.439528,0.0846 -0.427555,-0.002 -0.579574,-0.042 -0.337824,-0.0885 z m 83.077102,-0.005 c 0.40083,-0.042 1.05671,-0.042 1.45753,0 0.40082,0.042 0.0729,0.0762 -0.72877,0.0762 -0.80164,0 -1.12959,-0.0344 -0.72876,-0.0762 z m -86.370513,-0.44817 c -0.393893,-0.20807 -0.782359,-0.48841 -0.863243,-0.62302 -0.116303,-0.19364 -0.08629,-0.19554 0.144291,-0.009 0.160275,0.12968 0.679925,0.41193 1.154748,0.62733 0.474839,0.21541 0.732152,0.38971 0.571846,0.38733 -0.160352,-0.002 -0.613796,-0.17454 -1.007704,-0.38259 z m 89.834023,-0.18307 c 0.75929,-0.4014 1.64246,-1.18921 2.18376,-1.94788 0.19064,-0.26722 0.28451,-0.35468 0.20858,-0.19435 -0.47047,0.99356 -2.24186,2.54382 -2.87694,2.51779 -0.11521,-0.005 0.10278,-0.17371 0.4846,-0.37556 z m -91.696963,-1.3163 c -0.616284,-0.78625 -1.020797,-1.48278 -1.008358,-1.73626 0.0047,-0.0872 0.147867,0.10386 0.318995,0.42449 0.171175,0.32066 0.56855,0.91094 0.883067,1.31177 0.314533,0.40083 0.52814,0.72878 0.474699,0.72878 -0.05349,0 -0.354228,-0.32795 -0.668403,-0.72878 z m 9.960682,-1.20828 c 0.164022,-0.31718 0.37612,-0.90748 0.471309,-1.31177 0.127809,-0.54287 0.177083,-0.60806 0.188356,-0.24926 0.01555,0.48825 -0.637617,2.13773 -0.846233,2.13773 -0.06142,0 0.02255,-0.25951 0.186568,-0.5767 z m 73.456091,-0.0194 c -0.16955,-0.3279 -0.28111,-0.67369 -0.2479,-0.76839 0.0333,-0.0947 0.20693,0.1736 0.38604,0.59619 0.38615,0.91107 0.2997,1.01884 -0.13807,0.1722 z m -79.746433,-0.16318 c -0.164551,-0.10417 0.09982,-0.13076 0.680189,-0.0684 0.522107,0.0561 0.985735,0.13418 1.030266,0.17341 0.175917,0.15486 -1.458459,0.0546 -1.710455,-0.10511 z m 84.854623,0.0392 c 0.24049,-0.0463 0.63402,-0.0463 0.87451,0 0.24051,0.0463 0.0437,0.0843 -0.43726,0.0843 -0.48098,0 -0.67774,-0.0379 -0.43725,-0.0843 z m -85.943911,-0.83248 c -0.306152,-0.31957 -0.519277,-0.61203 -0.473626,-0.64998 0.04571,-0.0379 0.332118,0.22354 0.636575,0.581 0.687435,0.8071 0.585545,0.85021 -0.162949,0.0689 z m 3.934216,-0.0745 c 0.346935,-0.39515 0.630791,-0.86116 0.630791,-1.03559 0,-0.1744 0.06173,-0.25537 0.137294,-0.17989 0.200546,0.20057 -0.47176,1.35493 -0.970544,1.66643 -0.310117,0.19368 -0.254251,0.0692 0.202521,-0.45095 z m 80.673115,0.31537 c -0.24172,-0.30824 -0.23484,-0.31512 0.0734,-0.0734 0.32372,0.25386 0.42667,0.41344 0.26672,0.41344 -0.0403,0 -0.19339,-0.153 -0.34009,-0.34007 z m 3.68997,-0.26685 c 0.25222,-0.29026 0.5275,-0.819 0.61171,-1.17502 0.14507,-0.61359 0.15408,-0.61931 0.17299,-0.10993 0.014,0.36309 -0.18489,0.74405 -0.6117,1.17504 -0.34738,0.35073 -0.42523,0.40025 -0.173,0.10993 z m -92.073481,-0.0894 c 0.0093,-0.22639 0.05535,-0.27244 0.117392,-0.11739 0.05613,0.14025 0.04929,0.30788 -0.01555,0.37247 -0.06453,0.0645 -0.110551,-0.0502 -0.101999,-0.25506 z m 84.148211,-0.38868 c 0.009,-0.22639 0.0554,-0.27245 0.1174,-0.1174 0.0561,0.14025 0.0493,0.30791 -0.0155,0.37249 -0.0645,0.0645 -0.11055,-0.0502 -0.102,-0.25509 z m 3.47698,-0.0917 c -0.11755,-0.2197 -0.18498,-0.48582 -0.14973,-0.59142 0.0351,-0.10558 0.16446,0.0742 0.28723,0.39944 0.25535,0.67649 0.17896,0.7832 -0.13745,0.19198 z M 21.443771,355.9467 c 8.4e-4,-0.7482 0.03592,-1.03047 0.07805,-0.62726 0.04214,0.40321 0.04136,1.01537 -0.0016,1.36036 -0.04291,0.34499 -0.07743,0.0156 -0.0765,-0.7331 z m 96.191629,0.0972 c 0,-0.58788 0.0364,-0.82835 0.081,-0.53442 0.0445,0.29391 0.0445,0.77491 0,1.06884 -0.0445,0.29395 -0.081,0.0535 -0.081,-0.53442 z m -92.936327,0.46965 c 0.0093,-0.22639 0.05535,-0.27245 0.117392,-0.1174 0.05613,0.14025 0.04929,0.30788 -0.01555,0.37247 -0.06453,0.0645 -0.11055,-0.0502 -0.102154,-0.25507 z m 8.774945,-0.46965 c 0,-0.3741 0.03996,-0.52713 0.08894,-0.34008 0.04882,0.18705 0.04882,0.49312 0,0.68016 -0.04882,0.18706 -0.08894,0.034 -0.08894,-0.34008 z m 72.099292,0 c 0,-0.3741 0.04,-0.52713 0.0889,-0.34008 0.0488,0.18705 0.0488,0.49312 0,0.68016 -0.0488,0.18706 -0.0889,0.034 -0.0889,-0.34008 z m 3.27399,-0.11335 c 0.009,-0.2264 0.0554,-0.27244 0.11739,-0.11739 0.0561,0.14025 0.0493,0.30791 -0.0155,0.37248 -0.0645,0.0645 -0.11055,-0.0502 -0.102,-0.25506 z m 5.44867,-0.308 c -0.0124,-0.1783 -0.0729,-0.48439 -0.13434,-0.68018 -0.10604,-0.33743 -0.10029,-0.33793 0.11024,-0.009 0.12221,0.19039 0.18262,0.49648 0.13434,0.68015 -0.079,0.30092 -0.0899,0.30186 -0.11024,0.009 z m -89.610798,-0.35599 c 0.0015,-0.44483 0.668435,-1.35958 1.289228,-1.76888 0.360152,-0.23745 0.863118,-0.35711 1.430067,-0.34018 l 0.874515,0.0261 -0.971678,0.12578 c -1.238804,0.16043 -1.758096,0.50179 -2.238268,1.47131 -0.211756,0.42754 -0.384486,0.64616 -0.383864,0.48584 z m 5.081252,-0.4763 c -0.131386,-0.36348 -0.519868,-0.84079 -0.863196,-1.06069 -0.343329,-0.21992 -0.550296,-0.40131 -0.459897,-0.40311 0.58186,-0.0109 1.975061,1.71169 1.648105,2.03862 -0.04727,0.0473 -0.193564,-0.21134 -0.325012,-0.57482 z m 79.272186,0.44925 c -0.006,-0.1752 0.14072,-0.4854 0.32778,-0.68933 0.18705,-0.20394 0.27803,-0.27451 0.20218,-0.15681 -0.0759,0.1177 -0.22335,0.42788 -0.32778,0.68933 -0.12003,0.30052 -0.19439,0.35823 -0.20218,0.15681 z m -75.773332,-0.36162 c 0,-0.26721 0.04416,-0.37654 0.09796,-0.24291 0.05395,0.13356 0.05395,0.35224 0,0.48585 -0.05395,0.13356 -0.09796,0.0242 -0.09796,-0.24294 z m 72.487962,0 c 0,-0.26721 0.0442,-0.37654 0.098,-0.24291 0.054,0.13356 0.054,0.35224 0,0.48585 -0.054,0.13356 -0.098,0.0242 -0.098,-0.24294 z m 11.64492,-0.50203 c 0.009,-0.22639 0.0554,-0.27244 0.11739,-0.11739 0.0561,0.14025 0.0493,0.30791 -0.0155,0.37248 -0.0645,0.0645 -0.11055,-0.0502 -0.10216,-0.25507 z M 21.589679,354.1815 c 0.0093,-0.22639 0.05535,-0.27244 0.117392,-0.11739 0.05613,0.14025 0.04929,0.30791 -0.01555,0.37248 -0.06453,0.0645 -0.110551,-0.0502 -0.101999,-0.25507 z m 91.757571,-0.28103 c -0.34906,-0.3175 -0.5622,-0.5773 -0.47362,-0.5773 0.0886,0 0.41239,0.26237 0.7196,0.58301 0.71427,0.74554 0.57636,0.74235 -0.24598,-0.006 z m -3.11096,-0.30108 c 0.1845,-0.19263 0.37729,-0.30842 0.42841,-0.25728 0.0512,0.0512 -0.0998,0.20872 -0.33546,0.35023 -0.40933,0.24582 -0.41347,0.24169 -0.093,-0.093 z m 6.71919,-0.33279 c -0.48215,-1.01106 -1.29848,-1.86549 -2.36886,-2.47942 -0.54636,-0.31337 -0.90118,-0.57057 -0.7885,-0.57158 0.3743,-0.003 1.93249,1.08938 2.47813,1.73785 0.58525,0.69552 1.18104,1.7487 1.05857,1.87119 -0.0421,0.0421 -0.21288,-0.20895 -0.37934,-0.55804 z m -95.178222,0.3839 c -0.03001,-0.55317 1.343196,-2.27115 2.175529,-2.72181 0.612692,-0.33176 0.617606,-0.33158 0.147867,0.006 -0.732619,0.5256 -1.539389,1.4342 -1.948768,2.19476 -0.201355,0.3741 -0.369964,0.60883 -0.374691,0.52165 z m 84.333972,-0.0634 c 0,-0.10433 0.13605,-0.35934 0.30224,-0.56682 0.28497,-0.35571 0.28901,-0.3495 0.0709,0.10868 -0.28331,0.59488 -0.37308,0.70512 -0.37308,0.4582 z m -73.803807,-0.958 c -0.240226,-0.36647 -0.398185,-0.66629 -0.351041,-0.66629 0.135117,0 0.940208,1.18014 0.859868,1.26048 -0.03965,0.0396 -0.268617,-0.22774 -0.508827,-0.59419 z m 79.002347,0.55693 c 0.24049,-0.0463 0.63402,-0.0463 0.87451,0 0.24051,0.0463 0.0437,0.0843 -0.43726,0.0843 -0.48098,0 -0.67774,-0.0379 -0.43725,-0.0843 z m -4.32402,-1.02171 c 0.7526,-0.92619 2.50471,-2.13417 2.7458,-1.89309 0.0465,0.0465 -0.20246,0.20241 -0.55326,0.34644 -0.35081,0.14398 -1.0751,0.65856 -1.60952,1.14341 -0.53443,0.48484 -0.79679,0.6663 -0.58302,0.40324 z m -75.888864,-0.92169 -0.485847,-0.50235 0.6316,0.43016 c 0.619891,0.4222 0.775206,0.60961 0.485847,0.58629 -0.08023,-0.006 -0.364381,-0.2378 -0.6316,-0.5141 z m -0.971694,-0.64018 c -0.175155,-0.1132 -0.199115,-0.18957 -0.06002,-0.19136 0.127344,-0.002 0.285504,0.0844 0.35157,0.19136 0.149111,0.24128 0.08179,0.24128 -0.291505,0 z m -5.052782,-0.29151 c 0.267218,-0.15269 0.660753,-0.277 0.874531,-0.27608 0.213762,9e-4 0.03887,0.12765 -0.388684,0.28169 -0.973746,0.35081 -1.10664,0.34927 -0.485847,-0.006 z m 3.886761,-0.0972 c -0.400252,-0.12812 -0.417371,-0.15849 -0.09718,-0.17198 0.213762,-0.009 0.519852,0.0684 0.680173,0.17198 0.340515,0.22006 0.10402,0.22006 -0.58301,0 z M 110.14375,350.085 c 0.13356,-0.0539 0.35223,-0.0539 0.48584,0 0.13356,0.0539 0.0243,0.098 -0.24293,0.098 -0.26722,0 -0.37652,-0.0442 -0.24291,-0.098 z m 2.92721,-0.005 c 0.14024,-0.0561 0.30789,-0.0493 0.37248,0.0155 0.0645,0.0645 -0.0502,0.11055 -0.25508,0.10216 -0.22638,-0.009 -0.27244,-0.0554 -0.11739,-0.11739 z m -86.20093,-0.20077 c 0.293931,-0.0445 0.774912,-0.0445 1.068858,0 0.293946,0.0445 0.05349,0.081 -0.534421,0.081 -0.587893,0 -0.828383,-0.0364 -0.534437,-0.081 z m 84.43974,0.002 c 0.24049,-0.0463 0.63402,-0.0463 0.87451,0 0.24051,0.0463 0.0437,0.0843 -0.43726,0.0843 -0.48098,0 -0.67774,-0.0379 -0.43725,-0.0843 z m -62.382418,-0.96324 c 0.133563,-0.0539 0.352238,-0.0539 0.485847,0 0.133563,0.054 0.02426,0.098 -0.242916,0.098 -0.267202,0 -0.376524,-0.0442 -0.242931,-0.098 z m 40.616597,0 c 0.133563,-0.0539 0.352223,-0.0539 0.485832,0 0.133562,0.054 0.02426,0.098 -0.242916,0.098 -0.267218,0 -0.376525,-0.0442 -0.242916,-0.098 z m -41.734028,-0.25997 c -0.355239,-0.22957 -0.04836,-0.22957 0.485831,0 0.256288,0.11009 0.289407,0.17066 0.09718,0.17771 -0.160321,0.006 -0.422673,-0.0742 -0.583011,-0.17771 z m 43.451775,-0.26364 c 1.728507,-0.81114 3.012137,-2.436 3.37557,-4.27293 0.136206,-0.68858 0.162654,-0.72173 0.179182,-0.2247 0.05784,1.7374 -2.126037,4.34045 -4.057889,4.83688 -0.267218,0.0687 -0.04074,-0.084 0.503137,-0.33925 z m -44.841447,-0.569 c -0.973016,-0.74215 -1.85871,-2.08215 -2.01869,-3.05412 -0.09034,-0.54925 -0.04385,-0.49284 0.242045,0.29301 0.439124,1.20723 1.253279,2.29467 2.118217,2.82923 0.596693,0.36876 0.800644,0.57018 0.577366,0.57018 -0.04509,0 -0.458653,-0.28723 -0.918938,-0.6383 z m 38.503869,-0.11755 c -0.371736,-0.30884 -0.832736,-0.85542 -1.024435,-1.21461 -0.318684,-0.59713 -0.319275,-0.61145 -0.0062,-0.16724 0.187936,0.26722 0.687279,0.8138 1.109657,1.21461 0.912578,0.86603 0.870566,0.95565 -0.07836,0.16724 z m -30.405723,-0.65309 c 0.417278,-0.50769 0.789838,-0.92309 0.827917,-0.92309 0.13916,0 -0.705098,1.07971 -1.139604,1.45753 -0.245839,0.21378 -0.105575,-0.0267 0.311687,-0.53444 z m -5.879998,-1.74903 c -0.343002,-0.24049 -0.675276,-0.56828 -0.73845,-0.72843 -0.06313,-0.16015 0.131231,-0.0558 0.431987,0.23178 0.300757,0.28762 0.765489,0.60988 1.032676,0.71611 0.267218,0.10619 0.353451,0.19871 0.191621,0.20549 -0.16183,0.006 -0.574879,-0.18446 -0.917834,-0.42495 z m 2.086591,0.36275 c 0,-0.0409 0.175031,-0.12019 0.388948,-0.17621 0.213918,-0.056 0.339939,-0.0224 0.280046,0.0745 -0.104642,0.16926 -0.668994,0.25506 -0.668994,0.10168 z m 32.575576,-0.2245 c -0.187531,-0.48871 -0.132163,-0.61481 0.09687,-0.22084 0.11335,0.19507 0.165297,0.3956 0.115215,0.44564 -0.05007,0.0501 -0.145535,-0.0512 -0.212145,-0.2248 z m 4.895166,0.16626 c 0.140249,-0.0561 0.307894,-0.0493 0.372482,0.0155 0.06453,0.0645 -0.05022,0.11056 -0.255074,0.10216 -0.226388,-0.009 -0.272443,-0.0554 -0.117392,-0.11739 z m 1.328473,-0.0796 c 0.646821,-0.18738 1.817367,-1.3619 1.817367,-1.82354 0,-0.15036 0.08396,-0.32515 0.186552,-0.38856 0.111639,-0.069 0.105264,0.11801 -0.01617,0.46643 -0.265632,0.762 -1.604118,1.96287 -2.162826,1.94044 -0.344774,-0.014 -0.307909,-0.0549 0.175155,-0.19477 z m -33.924122,-0.0791 c 0.02021,-0.36812 0.344121,-0.98799 0.355394,-0.68018 0.0062,0.16032 -0.07417,0.42267 -0.177705,0.58301 -0.103554,0.16032 -0.183567,0.20405 -0.177689,0.0972 z m 31.356659,-0.53443 -0.570789,-0.63161 0.679209,0.58302 c 0.373571,0.32066 0.716091,0.60488 0.761167,0.6316 0.04509,0.0267 -0.0031,0.0485 -0.108374,0.0485 -0.104642,0 -0.447209,-0.28423 -0.761151,-0.63162 z m -34.968553,0.0485 c 0.193456,-0.21377 0.395479,-0.38867 0.44892,-0.38867 0.05349,0 -0.06111,0.1749 -0.254578,0.38867 -0.193455,0.21377 -0.395478,0.38868 -0.448919,0.38868 -0.05349,0 0.06111,-0.17491 0.254577,-0.38868 z m 31.012196,-0.50204 c 0.0093,-0.2264 0.05535,-0.27244 0.117392,-0.11739 0.05613,0.14025 0.04929,0.30789 -0.01555,0.37248 -0.06453,0.0645 -0.110551,-0.0502 -0.102155,-0.25507 z m -30.440178,-0.23649 c 0.07868,-0.13901 0.219344,-0.66371 0.312449,-1.16604 l 0.169246,-0.91334 -0.06764,0.94002 c -0.03716,0.51699 -0.177798,1.04171 -0.312434,1.16602 -0.18848,0.17401 -0.211865,0.16787 -0.101687,-0.0267 z m 3.4426,-0.23315 c 0,-0.26722 0.04416,-0.37654 0.09796,-0.24293 0.05395,0.13356 0.05395,0.35223 0,0.48584 -0.05395,0.13357 -0.09796,0.0243 -0.09796,-0.24291 z m -11.825068,-1.06886 c 0.0011,-0.64132 0.03732,-0.88025 0.0807,-0.53095 0.04322,0.34928 0.04229,0.874 -0.0015,1.16602 -0.04431,0.29202 -0.07977,0.006 -0.07868,-0.63507 z m 3.258862,0.56681 c 0.0093,-0.22639 0.05535,-0.27244 0.117392,-0.11739 0.05613,0.14024 0.04929,0.30791 -0.01555,0.37248 -0.06453,0.0645 -0.11055,-0.0502 -0.102154,-0.25508 z m 35.409698,-0.56681 c 0.0014,-0.53444 0.03918,-0.73001 0.08381,-0.4346 0.04462,0.29541 0.04354,0.73267 -0.0031,0.9717 -0.04618,0.23902 -0.08272,-0.003 -0.08116,-0.5371 z m 3.279246,0.13605 c -0.03467,-0.93167 0.287136,-1.69209 0.962443,-2.27428 0.373539,-0.32203 0.360354,-0.27799 -0.07728,0.25836 -0.542988,0.66537 -0.663536,0.9992 -0.784069,2.17131 -0.06406,0.623 -0.07261,0.60994 -0.101066,-0.15533 z m -38.684419,-0.38868 c -0.03809,-0.85395 1.117773,-2.37256 1.803964,-2.37026 0.119258,4e-4 -0.06188,0.17063 -0.402476,0.37828 -0.666397,0.40633 -1.017935,0.93209 -1.240871,1.85588 -0.114904,0.47644 -0.144291,0.50132 -0.160617,0.13605 z m 8.56888,-0.71911 c 0.0031,-0.32066 0.04758,-0.42832 0.09687,-0.23923 0.04929,0.18908 0.04602,0.45142 -0.0078,0.58302 -0.05318,0.13155 -0.0936,-0.0232 -0.08956,-0.34381 z m 35.09476,-0.26339 c -0.36264,-0.76905 -0.893733,-1.18188 -1.803746,-1.40201 -0.50124,-0.12128 -0.518095,-0.14382 -0.120035,-0.16092 0.671699,-0.0289 1.650033,0.64466 2.070482,1.42538 0.200546,0.37241 0.324749,0.71507 0.275988,0.76146 -0.04882,0.0463 -0.238935,-0.23438 -0.422611,-0.62391 z m 3.578433,0.069 c 0.0047,-0.32066 0.04758,-0.42832 0.09671,-0.23923 0.04929,0.18909 0.04602,0.45142 -0.0078,0.58301 -0.05318,0.13154 -0.0936,-0.0232 -0.08956,-0.34378 z M 83.01573,341.4673 c 0,-0.2672 0.04416,-0.37652 0.09796,-0.24292 0.05395,0.13357 0.05395,0.35224 0,0.48585 -0.05395,0.13356 -0.09796,0.0243 -0.09796,-0.24293 z m -38.689504,0 c -0.01648,-0.82341 1.460293,-3.03922 2.339116,-3.50955 0.19627,-0.10511 -0.06593,0.23173 -0.582482,0.74835 -0.587488,0.58749 -1.091294,1.33513 -1.345063,1.99602 -0.223122,0.58118 -0.408352,0.92552 -0.411571,0.76518 z m 7.734325,-0.53442 c -0.241719,-0.30824 -0.234831,-0.31511 0.07339,-0.0734 0.323706,0.25388 0.426669,0.41345 0.266721,0.41345 -0.04027,0 -0.193409,-0.153 -0.340095,-0.34008 z m 3.660451,-0.0539 c -0.222469,-0.88635 -1.362166,-2.37233 -2.252619,-2.93704 -0.481867,-0.30559 -0.78466,-0.55561 -0.672881,-0.55561 0.908613,0 3.383904,2.97332 3.124118,3.75268 -0.04183,0.12548 -0.13123,0.009 -0.198618,-0.26003 z m 38.656805,-0.0992 c -0.187532,-0.4887 -0.132163,-0.6148 0.09687,-0.22084 0.113504,0.19507 0.165312,0.3956 0.115215,0.44562 -0.05007,0.0501 -0.145535,-0.0512 -0.212161,-0.22478 z m -11.195878,0.008 c -0.0031,-0.5627 1.496319,-2.4803 2.232343,-2.85475 0.213762,-0.10884 0.05722,0.0829 -0.347931,0.42601 -0.405134,0.34307 -0.994628,1.0736 -1.309969,1.62342 -0.315342,0.54981 -0.573837,0.9122 -0.574443,0.80532 z m -31.873915,-0.29146 c -0.175155,-0.11319 -0.199131,-0.18957 -0.06002,-0.19135 0.127343,-0.002 0.285488,0.0844 0.351554,0.19135 0.149111,0.24129 0.08179,0.24129 -0.291505,0 z M 87.843492,340.302 c 0.160322,-0.10356 0.422673,-0.18359 0.583011,-0.17771 0.192211,0.006 0.159108,0.0676 -0.09718,0.17771 -0.53425,0.22957 -0.841086,0.22957 -0.485831,0 z m -37.94216,-0.13745 c 0.241719,-0.0465 0.591547,-0.0448 0.777321,0.003 0.185821,0.0487 -0.01244,0.0866 -0.439497,0.0846 -0.427555,-0.002 -0.579574,-0.042 -0.337824,-0.0885 z m 43.175757,-1.41054 c -0.573044,-0.59696 -1.262376,-1.06881 -1.943389,-1.33029 -0.580429,-0.22288 -0.924146,-0.40786 -0.763825,-0.41108 0.826035,-0.0166 3.039487,1.46078 3.512351,2.3443 0.265477,0.49607 0.209875,0.45442 -0.805137,-0.60293 z m -45.707675,-1.19686 c 0.131852,-0.13278 0.288659,-0.19253 0.348475,-0.13263 0.05986,0.0599 -0.04805,0.16851 -0.239682,0.24147 -0.276967,0.10542 -0.299295,0.0832 -0.10884,-0.10884 z m 38.673208,0 c 0.131852,-0.13278 0.288644,-0.19253 0.348475,-0.13263 0.05986,0.0599 -0.04805,0.16851 -0.239681,0.24147 -0.276967,0.10542 -0.299295,0.0832 -0.10884,-0.10884 z m -37.844017,-0.3557 c 0.160321,-0.10853 0.459119,-0.19859 0.663972,-0.20022 0.497197,-0.005 0.342084,0.10729 -0.372467,0.26709 -0.425783,0.0953 -0.504397,0.0773 -0.291505,-0.0669 z m 3.595225,-0.009 c -0.256272,-0.11008 -0.28936,-0.17066 -0.09718,-0.17771 0.160337,-0.006 0.422689,0.0742 0.583042,0.17771 0.355238,0.22958 0.04836,0.22958 -0.485863,0 z m 35.85532,-0.19583 c 0.48053,-0.15238 2.472181,-0.25802 2.315855,-0.12284 -0.04447,0.0386 -0.693141,0.11662 -1.441339,0.17346 -0.790662,0.0602 -1.156894,0.0389 -0.874516,-0.0507 z M 49.804542,336.8587 c 0.295423,-0.0446 0.732681,-0.0435 0.971694,0.003 0.239029,0.0462 -0.0031,0.0827 -0.53708,0.0812 -0.534452,-0.001 -0.730006,-0.0392 -0.434614,-0.0838 z"
         id="path9-5-8" /><circle
         style="fill:#00d4aa;stroke:#8800aa;stroke-width:2.58418;stroke-dasharray:none;stroke-opacity:1"
         id="path17-1-43-0"
         cx="89.206711"
         cy="342.23126"
         r="6.6081548" /><circle
         style="fill:#8800aa;fill-opacity:1;stroke:none;stroke-width:1.06407;stroke-dasharray:none;stroke-opacity:1"
         id="path17-1-5-83-0"
         cx="89.19838"
         cy="342.14627"
         r="2.721005" /><circle
         style="fill:#00d4aa;stroke:#8800aa;stroke-width:2.58418;stroke-dasharray:none;stroke-opacity:1"
         id="path17-1-3-7-5"
         cx="112.38657"
         cy="356.84558"
         r="6.6081548" /><circle
         style="fill:#8800aa;fill-opacity:1;stroke:none;stroke-width:1.06407;stroke-dasharray:none;stroke-opacity:1"
         id="path17-1-5-4-4-5"
         cx="112.42444"
         cy="356.88135"
         r="2.721005" /><circle
         style="fill:#00d4aa;stroke:#8800aa;stroke-width:2.58418;stroke-dasharray:none;stroke-opacity:1"
         id="path17-1-4-5-5"
         cx="127.3144"
         cy="377.487"
         r="6.6081548" /><circle
         style="fill:#8800aa;fill-opacity:1;stroke:none;stroke-width:1.06407;stroke-dasharray:none;stroke-opacity:1"
         id="path17-1-5-2-8-5"
         cx="127.30602"
         cy="377.40201"
         r="2.721005" /><circle
         style="fill:#00d4aa;stroke:#8800aa;stroke-width:2.58418;stroke-dasharray:none;stroke-opacity:1"
         id="path17-1-9-0-7"
         cx="49.633579"
         cy="343.37759"
         r="6.6081548" /><circle
         style="fill:#8800aa;fill-opacity:1;stroke:none;stroke-width:1.06407;stroke-dasharray:none;stroke-opacity:1"
         id="path17-1-5-8-2-9"
         cx="49.625229"
         cy="343.29263"
         r="2.721005" /><circle
         style="fill:#00d4aa;fill-opacity:1;stroke:#8800aa;stroke-width:5.44201;stroke-dasharray:none;stroke-opacity:1"
         id="path17-1-9-8-4-0"
         cx="70.103134"
         cy="426.05502"
         r="16.343336" /><circle
         style="fill:#8800aa;fill-opacity:1;stroke:none;stroke-width:2.63168;stroke-dasharray:none;stroke-opacity:1"
         id="path17-1-5-8-9-1-8"
         cx="70.082474"
         cy="425.84485"
         r="6.729609" /><circle
         style="fill:#00d4aa;stroke:#8800aa;stroke-width:2.58418;stroke-dasharray:none;stroke-opacity:1"
         id="path17-1-6-7-1"
         cx="27.346621"
         cy="357.10327"
         r="6.6081548" /><circle
         style="fill:#8800aa;fill-opacity:1;stroke:none;stroke-width:1.06407;stroke-dasharray:none;stroke-opacity:1"
         id="path17-1-5-0-5-4"
         cx="27.338282"
         cy="357.18527"
         r="2.721005" /><circle
         style="fill:#00d4aa;stroke:#8800aa;stroke-width:2.58418;stroke-dasharray:none;stroke-opacity:1"
         id="path17-1-0-8-4"
         cx="12.536589"
         cy="378.30978"
         r="6.6081548" /><circle
         style="fill:#8800aa;fill-opacity:1;stroke:none;stroke-width:1.06407;stroke-dasharray:none;stroke-opacity:1"
         id="path17-1-5-9-1-7"
         cx="12.528237"
         cy="378.22479"
         r="2.721005" /></g></g></svg>
